<?xml version="1.0" encoding="utf-8"?>
<!-- Generator: Adobe Illustrator 27.4.1, SVG Export Plug-In . SVG Version: 6.00 Build 0)  -->
<svg version="1.1" id="Layer_1" xmlns="http://www.w3.org/2000/svg" xmlns:xlink="http://www.w3.org/1999/xlink" x="0px" y="0px"
	 viewBox="0 0 252.8 273.3" style="enable-background:new 0 0 252.8 273.3;" xml:space="preserve">
<style type="text/css">
	.st0{fill:#FF6600;}
	.st1{fill:#FF6600;stroke:#FF6600;stroke-width:0.75;stroke-miterlimit:10;}
</style>
<path class="st0" d="M249.9,267.3c-30.1-1.2-60.3-2.5-90-7.7c-26-4.6-51.5-12.4-74.5-25.5c-22-12.5-41.1-29.7-54.1-51.5
	c-13.6-22.8-20.8-49.1-23.7-75.3C4.3,76.5,6.6,45.4,9.4,14.6c0.4-3.9,0.7-7.7,1.1-11.6c0.2-1.6-1.5-3-3-3c-1.7,0-2.8,1.4-3,3
	C1.5,34.4-1.5,66.1,0.8,97.7c2,27.6,8.1,55.1,20.8,79.8c6.1,11.8,13.8,22.8,22.9,32.5c8.8,9.4,19,17.5,29.8,24.4
	c22.2,14.2,47.3,23.3,73,28.8c30,6.4,60.7,8.3,91.3,9.6c3.8,0.2,7.5,0.3,11.3,0.5C253.8,273.5,253.8,267.5,249.9,267.3L249.9,267.3z
	"/>
</svg>
