<?xml version="1.0" encoding="utf-8"?>
<!-- Generator: Adobe Illustrator 27.7.0, SVG Export Plug-In . SVG Version: 6.00 Build 0)  -->
<svg version="1.1" id="Layer_1" xmlns="http://www.w3.org/2000/svg" xmlns:xlink="http://www.w3.org/1999/xlink" x="0px" y="0px"
	 viewBox="0 0 198.8 50.1" style="enable-background:new 0 0 198.8 50.1;" xml:space="preserve">
<style type="text/css">
	.st0{enable-background:new    ;}
	.st1{fill:#FFFFFF;}
</style>
<g id="Group_345" transform="translate(-584.109 -82)">
	<g class="st0">
		<path class="st1" d="M601.8,105.8c-1.1-0.8-1.6-2-1.6-3.5c0-0.2,0-0.4,0.1-0.7l0.1-0.5c0-0.1,0.1-0.2,0.1-0.2
			c0.1-0.1,0.1-0.1,0.2-0.1h3.4c0.1,0,0.2,0,0.2,0.1c0.1,0.1,0.1,0.1,0.1,0.2l-0.1,0.3c-0.1,0.6,0.1,1,0.6,1.4s1.2,0.6,2.1,0.6
			c0.8,0,1.3-0.2,1.7-0.5s0.6-0.8,0.6-1.2c0-0.4-0.2-0.7-0.5-0.9c-0.4-0.2-1-0.5-1.9-0.8l-0.6-0.2c-0.9-0.3-1.8-0.7-2.4-1.1
			c-0.7-0.4-1.3-0.9-1.8-1.5c-0.5-0.6-0.7-1.4-0.7-2.3c0-0.1,0-0.4,0.1-0.7c0.1-1,0.5-2,1.1-2.7c0.6-0.8,1.4-1.4,2.4-1.8
			c1-0.4,2.1-0.6,3.3-0.6c1.2,0,2.2,0.2,3.1,0.6c0.9,0.4,1.6,1,2.1,1.7c0.5,0.7,0.8,1.6,0.8,2.6c0,0.2,0,0.4-0.1,0.7l-0.1,0.4
			c0,0.1,0,0.2-0.1,0.2c-0.1,0.1-0.1,0.1-0.2,0.1h-3.4c-0.1,0-0.2,0-0.2-0.1c-0.1-0.1-0.1-0.1-0.1-0.2l0-0.2
			c0.1-0.6-0.1-1.1-0.6-1.6s-1.1-0.7-1.9-0.7c-0.7,0-1.2,0.2-1.6,0.5c-0.4,0.3-0.6,0.7-0.6,1.3c0,0.3,0.1,0.6,0.3,0.8
			c0.2,0.2,0.5,0.4,1,0.6c0.4,0.2,1.1,0.5,2,0.8c1,0.4,1.8,0.7,2.4,1c0.6,0.3,1.1,0.7,1.6,1.3s0.7,1.4,0.7,2.3c0,0.1,0,0.4-0.1,0.7
			c-0.2,1.6-0.9,2.9-2.2,3.9c-1.3,1-2.9,1.4-4.9,1.4C604.4,107.1,602.9,106.7,601.8,105.8z"/>
		<path class="st1" d="M629.3,89.4c0.1,0.1,0.1,0.1,0.1,0.2l-0.4,3c0,0.1,0,0.2-0.1,0.2c-0.1,0.1-0.1,0.1-0.2,0.1h-4.3
			c-0.1,0-0.2,0-0.2,0.1l-1.7,13.6c0,0.1-0.1,0.2-0.1,0.2c-0.1,0.1-0.1,0.1-0.2,0.1h-3.5c-0.1,0-0.2,0-0.2-0.1s-0.1-0.1-0.1-0.2
			l1.7-13.6c0-0.1,0-0.1-0.1-0.1H616c-0.1,0-0.2,0-0.2-0.1c-0.1-0.1-0.1-0.1-0.1-0.2l0.4-3c0-0.1,0.1-0.2,0.1-0.2
			c0.1-0.1,0.1-0.1,0.2-0.1h12.7C629.2,89.3,629.3,89.3,629.3,89.4z"/>
		<path class="st1" d="M638.3,106.8c-0.1-0.1-0.1-0.1-0.1-0.2l-0.4-2.2c0-0.1-0.1-0.1-0.1-0.1h-5.6c-0.1,0-0.1,0-0.1,0.1l-0.9,2.2
			c-0.1,0.2-0.2,0.3-0.4,0.3H627c-0.1,0-0.2,0-0.2-0.1s0-0.1,0-0.3l7.3-17c0.1-0.2,0.2-0.3,0.4-0.3h4.6c0.2,0,0.3,0.1,0.3,0.3
			l3.2,17v0.1c0,0.2-0.1,0.3-0.3,0.3h-3.8C638.4,106.9,638.3,106.9,638.3,106.8z M633.5,101.1h3.6c0.1,0,0.1-0.1,0.1-0.2l-1.1-6.5
			c0-0.1,0-0.1-0.1-0.1c0,0-0.1,0-0.1,0.1l-2.6,6.5C633.4,101,633.4,101.1,633.5,101.1z"/>
		<path class="st1" d="M646.5,106.8c-0.1-0.1-0.1-0.1-0.1-0.2l0.7-6c0-0.1,0-0.1,0-0.2l-3.7-10.8c0,0,0-0.1,0-0.1
			c0-0.2,0.1-0.2,0.3-0.2h3.8c0.2,0,0.3,0.1,0.3,0.2l1.9,6.4c0,0.1,0.1,0.1,0.2,0l3.5-6.4c0.1-0.2,0.2-0.2,0.4-0.2h3.8
			c0.1,0,0.2,0,0.2,0.1c0,0.1,0,0.1,0,0.3l-6.4,10.8l-0.1,0.2l-0.7,6c0,0.1-0.1,0.2-0.1,0.2c-0.1,0.1-0.1,0.1-0.2,0.1h-3.5
			C646.7,106.9,646.6,106.8,646.5,106.8z"/>
		<path class="st1" d="M662.4,106.8c-0.1-0.1-0.1-0.1-0.1-0.2l2.1-17c0-0.1,0-0.2,0.1-0.2c0.1-0.1,0.1-0.1,0.2-0.1h3.5
			c0.2,0,0.3,0.1,0.3,0.3l-2.1,17c0,0.1-0.1,0.2-0.1,0.2c-0.1,0.1-0.1,0.1-0.2,0.1h-3.5C662.6,106.9,662.5,106.9,662.4,106.8z"/>
		<path class="st1" d="M680.8,89.4c0.1-0.1,0.1-0.1,0.2-0.1h3.5c0.1,0,0.2,0,0.2,0.1c0,0.1,0.1,0.1,0,0.2l-2.1,17
			c0,0.1-0.1,0.2-0.1,0.2c-0.1,0.1-0.1,0.1-0.2,0.1H679c-0.2,0-0.3-0.1-0.3-0.2l-4.4-9.6c0-0.1-0.1-0.1-0.1-0.1c0,0-0.1,0-0.1,0.1
			l-1.1,9.5c0,0.1-0.1,0.2-0.1,0.2c-0.1,0.1-0.1,0.1-0.2,0.1h-3.5c-0.1,0-0.2,0-0.2-0.1c-0.1-0.1-0.1-0.1-0.1-0.2l2.1-17
			c0-0.1,0-0.2,0.1-0.2c0.1-0.1,0.1-0.1,0.2-0.1h3.4c0.2,0,0.3,0.1,0.3,0.2l4.4,9.6c0,0.1,0,0.1,0.1,0.1c0,0,0.1,0,0.1-0.1l1.1-9.4
			C680.7,89.5,680.7,89.4,680.8,89.4z"/>
		<path class="st1" d="M704.6,89.4c0.1,0.1,0.1,0.1,0.1,0.2l-0.4,3c0,0.1,0,0.2-0.1,0.2c-0.1,0.1-0.1,0.1-0.2,0.1h-4.3
			c-0.1,0-0.2,0-0.2,0.1l-1.7,13.6c0,0.1-0.1,0.2-0.1,0.2s-0.1,0.1-0.2,0.1h-3.5c-0.1,0-0.2,0-0.2-0.1c0-0.1-0.1-0.1,0-0.2l1.7-13.6
			c0-0.1,0-0.1-0.1-0.1h-4.1c-0.1,0-0.2,0-0.2-0.1c0-0.1-0.1-0.1,0-0.2l0.4-3c0-0.1,0.1-0.2,0.1-0.2c0.1-0.1,0.1-0.1,0.2-0.1h12.7
			C704.5,89.3,704.6,89.3,704.6,89.4z"/>
		<path class="st1" d="M705.8,105.7c-1.1-1-1.6-2.4-1.6-4.1c0-0.4,0-0.7,0.1-1l0.6-5c0.2-1.3,0.6-2.4,1.2-3.4s1.6-1.7,2.6-2.3
			c1.1-0.5,2.3-0.8,3.6-0.8c1.2,0,2.3,0.2,3.2,0.7c0.9,0.5,1.6,1.1,2.1,1.9s0.7,1.8,0.7,2.9c0,0.4,0,0.8,0,1l-0.6,5
			c-0.2,1.3-0.6,2.5-1.2,3.5s-1.6,1.8-2.6,2.3s-2.3,0.8-3.6,0.8C708.3,107.2,706.9,106.7,705.8,105.7z M712.6,102.8
			c0.5-0.5,0.9-1.2,1-2.1l0.7-5.2c0-0.1,0-0.3,0-0.5c0-0.7-0.2-1.3-0.6-1.8c-0.4-0.4-1-0.7-1.7-0.7c-0.8,0-1.4,0.3-2,0.8
			c-0.5,0.5-0.9,1.2-1,2.1l-0.6,5.2c0,0.1,0,0.3,0,0.5c0,0.7,0.2,1.3,0.6,1.7s0.9,0.6,1.6,0.6C711.4,103.6,712,103.3,712.6,102.8z"
			/>
		<path class="st1" d="M721.1,105.7c-1-1-1.6-2.2-1.6-3.9c0-0.2,0-0.5,0.1-0.9l1.4-11.3c0-0.1,0.1-0.2,0.1-0.2
			c0.1-0.1,0.1-0.1,0.2-0.1h3.5c0.1,0,0.2,0,0.2,0.1c0,0.1,0.1,0.1,0,0.2l-1.4,11.3c0,0.1,0,0.2,0,0.4c0,0.7,0.2,1.2,0.6,1.6
			c0.4,0.4,0.9,0.6,1.6,0.6c0.7,0,1.3-0.2,1.9-0.7c0.5-0.5,0.8-1.1,0.9-1.9l1.4-11.3c0-0.1,0.1-0.2,0.1-0.2c0.1-0.1,0.1-0.1,0.2-0.1
			h3.5c0.1,0,0.2,0,0.2,0.1c0.1,0.1,0.1,0.1,0.1,0.2l-1.4,11.3c-0.2,1.2-0.6,2.3-1.2,3.3c-0.7,0.9-1.5,1.7-2.5,2.2
			c-1,0.5-2.2,0.8-3.5,0.8C723.6,107.1,722.2,106.6,721.1,105.7z"/>
		<path class="st1" d="M736.1,105.7c-1-1-1.6-2.3-1.6-3.9c0-0.4,0-0.7,0.1-0.9l0.7-5.4c0.2-1.2,0.6-2.3,1.2-3.3
			c0.7-0.9,1.5-1.7,2.6-2.2c1.1-0.5,2.2-0.8,3.5-0.8c1.8,0,3.2,0.5,4.3,1.4c1,0.9,1.6,2.2,1.6,3.7c0,0.2,0,0.5,0,0.9
			c0,0.1,0,0.1-0.1,0.2c-0.1,0.1-0.1,0.1-0.2,0.1l-3.5,0.2c-0.2,0-0.3-0.1-0.3-0.3c0-0.1,0-0.2,0-0.4c0-0.7-0.2-1.2-0.6-1.6
			c-0.4-0.4-0.9-0.6-1.6-0.6c-0.7,0-1.4,0.2-1.9,0.7c-0.5,0.5-0.8,1.1-0.9,1.9l-0.7,5.7c0,0.1,0,0.2,0,0.4c0,0.7,0.2,1.2,0.6,1.6
			c0.4,0.4,0.9,0.6,1.6,0.6c0.8,0,1.4-0.2,1.9-0.7c0.5-0.5,0.8-1.1,0.9-1.9c0-0.2,0.1-0.3,0.3-0.3l3.5,0.2c0.2,0,0.3,0.1,0.3,0.3
			c-0.2,1.2-0.6,2.2-1.2,3.1c-0.7,0.9-1.5,1.6-2.6,2.1c-1.1,0.5-2.2,0.7-3.5,0.7C738.6,107.1,737.1,106.6,736.1,105.7z"/>
		<path class="st1" d="M760.1,89.4c0.1-0.1,0.1-0.1,0.2-0.1h3.5c0.1,0,0.2,0,0.2,0.1c0.1,0.1,0.1,0.1,0.1,0.2l-2.1,17
			c0,0.1-0.1,0.2-0.1,0.2c-0.1,0.1-0.1,0.1-0.2,0.1h-3.5c-0.1,0-0.2,0-0.2-0.1s-0.1-0.1-0.1-0.2l0.8-6.7c0-0.1,0-0.1-0.1-0.1H754
			c-0.1,0-0.1,0-0.2,0.1l-0.8,6.7c0,0.1-0.1,0.2-0.1,0.2c-0.1,0.1-0.1,0.1-0.2,0.1h-3.5c-0.1,0-0.2,0-0.2-0.1
			c-0.1-0.1-0.1-0.1-0.1-0.2l2.1-17c0-0.1,0-0.2,0.1-0.2c0.1-0.1,0.1-0.1,0.2-0.1h3.5c0.2,0,0.3,0.1,0.3,0.3l-0.8,6.5
			c0,0.1,0,0.1,0.1,0.1h4.6c0,0,0.1,0,0.1,0c0,0,0-0.1,0-0.1l0.8-6.5C760,89.5,760,89.4,760.1,89.4z"/>
	</g>
	<g id="Underline" transform="translate(683.5 126.567)">
		<path id="Path_478" class="st1" d="M-87.3-3.5c22.7-1.3,45.5-1.9,68.1-1.8C3.6-5.1,26.4-4.4,49.1-2.9C61.7-2,74.5-1,87.2,0.3
			c1.3,0,2.2-1,2.2-2.2s-1-2.2-2.2-2.2C64.6-6.5,41.9-8.1,19.3-8.9C-3.4-9.7-26.2-10-49-9.4C-61.7-9.2-74.5-8.7-87.3-8
			C-90.2-7.8-90.2-3.3-87.3-3.5z"/>
	</g>
</g>
</svg>
