<?xml version="1.0" encoding="utf-8"?>
<!-- Generator: Adobe Illustrator 27.4.1, SVG Export Plug-In . SVG Version: 6.00 Build 0)  -->
<svg version="1.1" id="Layer_1" xmlns="http://www.w3.org/2000/svg" xmlns:xlink="http://www.w3.org/1999/xlink" x="0px" y="0px"
	 viewBox="0 0 267.6 200.9" style="enable-background:new 0 0 267.6 200.9;" xml:space="preserve">
<style type="text/css">
	.st0{fill:#FF6600;}
	.st1{fill:#FF6600;stroke:#FF6600;stroke-width:0.75;stroke-miterlimit:10;}
</style>
<g>
	<g>
		<g>
			<path class="st0" d="M0.7,36.4c0.4,0.4,1,0.6,1.6,0.6l6.1,0c0.7,0,1.3-0.3,1.7-0.7c0.4-0.4,0.6-1,0.6-1.6l0-14.5l1.5,2.6
				c0.4,0.8,1.2,1.3,2.2,1.3l2.8,0c1,0,1.8-0.5,2.2-1.3l1.5-2.6l0,14.5c0,1.4,0.9,2.3,2.2,2.3h6.1c0.6,0,1.2-0.2,1.6-0.7
				c0.4-0.4,0.6-1,0.6-1.6l0-32c0-0.6-0.2-1.2-0.6-1.6c-0.4-0.4-1-0.7-1.6-0.7l-6,0c-1,0-1.8,0.5-2.2,1.3l-5.3,8.8l-5.2-8.7
				c-0.5-0.8-1.3-1.3-2.2-1.3l-6,0c-0.6,0-1.2,0.2-1.6,0.7C0.2,1.5,0,2,0,2.7l0,32C0,35.3,0.2,35.9,0.7,36.4L0.7,36.4z"/>
			<path class="st0" d="M35.5,37h6.6c1.2,0,2-0.7,2.3-1.8l0.9-3.2h9l0.9,3.2c0.2,1.1,1.1,1.8,2.3,1.8h6.6c0.9,0,1.4-0.4,1.7-0.7
				c0.3-0.3,0.6-0.8,0.5-1.7l0-0.3L56.3,2.1C55.9,1,55,0.4,53.9,0.4l-8.3,0c-1.2,0-2,0.7-2.3,1.7l-9.9,32.1L33.4,35l0,0.2
				C33.5,36.3,34.4,37,35.5,37z M49.8,15.8l2,7.2l-4,0L49.8,15.8z"/>
			<path class="st0" d="M68.7,36.4c0.4,0.4,1,0.6,1.6,0.6h6.1c0.7,0,1.3-0.3,1.7-0.7c0.4-0.4,0.6-1,0.6-1.6l0-8.4l1.2-1.7l6.3,11.1
				c0.5,0.8,1.3,1.2,2.2,1.2l6.9,0c0.8,0,1.3-0.3,1.5-0.6c0.4-0.4,0.6-1,0.6-1.7L97.1,34L87,16.7l9.5-13l0.1-0.1
				c0.2-0.3,0.5-0.9,0.4-1.5c-0.1-0.8-0.7-1.7-2.1-1.7l-6.9,0c-0.9,0-1.6,0.4-2.1,1.1l-7.1,9.7l0-8.5c0-0.6-0.2-1.2-0.6-1.6
				c-0.4-0.4-1-0.7-1.6-0.7l-6.1,0c-0.6,0-1.2,0.2-1.6,0.7C68.3,1.5,68,2,68,2.7l0,32C68,35.3,68.2,35.9,68.7,36.4L68.7,36.4z"/>
			<path class="st0" d="M101.1,37l21.6,0c0.7,0,1.2-0.3,1.7-0.7c0.4-0.4,0.6-1,0.6-1.6l0-5.1c0-0.6-0.2-1.2-0.6-1.6
				c-0.4-0.4-1-0.7-1.6-0.7l-13.2,0l0-4l8,0c1.3,0,2.2-0.9,2.3-2.3l0-5.1c0-0.6-0.2-1.2-0.7-1.6c-0.4-0.4-1-0.6-1.6-0.6l-7.9,0
				l0-3.6l13.2,0c0.6,0,1.2-0.2,1.6-0.7c0.4-0.4,0.6-1,0.6-1.6l0-5.1c0-0.6-0.2-1.2-0.6-1.6c-0.4-0.4-1-0.7-1.6-0.7l-21.6,0
				c-0.6,0-1.2,0.2-1.6,0.7c-0.4,0.4-0.6,1-0.6,1.6l0,32c0,0.6,0.2,1.2,0.7,1.6C99.9,36.8,100.5,37,101.1,37z"/>
		</g>
		<g>
			<path class="st0" d="M142.5,34.6L142.5,34.6c2.5,1.8,5.6,2.7,9.4,2.7c2.6,0,5-0.5,7-1.4c2.1-0.9,3.8-2.3,4.9-4
				c1.2-1.8,1.8-3.8,1.8-6.1c0-0.6,0-1.1-0.1-1.4c-0.3-2.1-1-3.9-2.3-5.2c-1.2-1.3-2.5-2.2-3.8-2.9c-1.2-0.5-2.9-1.2-4.9-1.9
				c-1.8-0.6-3.1-1.1-4-1.5c-0.9-0.4-1.4-0.7-1.6-0.9c-0.3-0.2-0.3-0.5-0.3-0.6c-0.1-0.7,0.1-1,0.4-1.2c0.4-0.4,1.1-0.6,2.1-0.6
				c1.2,0,2.1,0.3,2.8,0.8c0.6,0.5,1,1.1,1.1,1.7l0,0.8c0,0.6,0.3,1.2,0.9,1.6c0.4,0.2,0.8,0.4,1.4,0.4l6,0c0.7,0,1.2-0.3,1.7-0.7
				c0.4-0.4,0.6-1,0.6-1.6l0-0.4c0-0.7,0-1.2-0.1-1.5c-0.3-2.1-1.1-4-2.4-5.7c-1.3-1.6-3-2.9-5-3.7c-2-0.8-4.2-1.3-6.6-1.3
				c-2.5,0-4.7,0.4-6.7,1.3c-2,0.9-3.7,2.2-4.8,4c-1.2,1.7-1.8,3.7-1.8,6c0,0.6,0,1.1,0.1,1.4c0.3,2.1,1,3.8,2.3,5.3
				c1.2,1.4,2.6,2.4,4.2,3.2c1.5,0.7,3.2,1.4,5,2.1c0.2,0.1,0.4,0.1,0.6,0.2c0.2,0.1,0.3,0.1,0.5,0.2c2.2,0.8,3.2,1.2,3.7,1.5
				c0.4,0.2,0.5,0.5,0.6,0.8c0,0.3,0,0.7-0.4,1.2c-0.4,0.4-1.1,0.6-2.1,0.6c-1.3,0-2.3-0.3-3.1-0.9c-0.9-0.7-1-1.3-1-1.6l0-0.5
				c0-0.7-0.2-1.3-0.8-1.7c-0.4-0.3-0.9-0.4-1.4-0.4l-5.9,0c-0.6,0-1.2,0.2-1.6,0.7c-0.4,0.4-0.6,1-0.6,1.6l0,0.7
				c0,0.7,0,1.2,0.1,1.5C138.5,30.2,140,32.8,142.5,34.6z"/>
			<path class="st0" d="M172.2,34.3c2.5,2,5.6,3.1,9.4,3.1c2.7,0,5.1-0.5,7.2-1.6c2.1-1.1,3.8-2.7,4.9-4.7c1.2-2,1.7-4.3,1.7-6.9
				l0-21.4c0-0.6-0.2-1.2-0.6-1.6c-0.4-0.4-1-0.7-1.6-0.7l-6.1,0c-0.6,0-1.2,0.2-1.6,0.7c-0.4,0.4-0.6,1-0.6,1.6l0,21.5
				c0,1.1-0.3,2-0.9,2.6c-0.6,0.6-1.4,0.9-2.4,0.9c-0.9,0-1.7-0.3-2.3-0.8c-0.6-0.5-0.9-1.3-1.1-2.2c0-0.4,0-0.5,0-0.5l0-21.5
				c0-0.6-0.2-1.2-0.6-1.6c-0.4-0.4-1-0.7-1.6-0.7l-6.1,0c-0.6,0-1.2,0.2-1.6,0.7c-0.4,0.4-0.6,1-0.6,1.6l0,21.5
				c0,0.8,0.1,1.4,0.1,1.9C168.2,29.5,169.7,32.2,172.2,34.3z"/>
			<path class="st0" d="M200,37h6.1c0.7,0,1.3-0.3,1.7-0.7c0.4-0.4,0.6-1,0.6-1.6l0-11.2h1.1l5.2,11.9c0.4,1,1.2,1.5,2.3,1.5l6.4,0
				c0.8,0,1.3-0.3,1.6-0.6c0.4-0.4,0.6-1,0.6-1.7c0-0.3-0.1-0.5-0.2-0.8l-5.5-11.8c1.6-0.8,2.9-2,3.9-3.5c1.2-1.8,1.8-3.9,1.8-6.4
				c0-0.8-0.1-1.3-0.1-1.7c-0.4-3.1-1.6-5.6-3.7-7.4c-2.1-1.8-4.8-2.8-7.9-2.8l-13.6,0c-0.6,0-1.2,0.2-1.6,0.7
				c-0.4,0.4-0.6,1-0.6,1.6l0,32c0,0.6,0.2,1.2,0.7,1.6C198.8,36.8,199.3,37,200,37z M208.3,14.6l0-4.5l4,0c0.7,0,1.3,0.2,1.7,0.5
				c0.4,0.3,0.6,0.8,0.7,1.4c0.1,1.1-0.2,1.6-0.5,1.9c-0.5,0.5-1.1,0.7-1.9,0.7L208.3,14.6z"/>
			<path class="st0" d="M229.7,37l21.6,0c0.7,0,1.2-0.3,1.7-0.7c0.4-0.4,0.6-1,0.6-1.6l0-5.1c0-0.6-0.2-1.2-0.6-1.6
				c-0.4-0.4-1-0.7-1.6-0.7l-13.2,0l0-4l8,0c1.3,0,2.2-0.9,2.3-2.3l0-5.1c0-0.6-0.2-1.2-0.7-1.6c-0.4-0.4-1-0.6-1.6-0.6l-7.9,0
				l0-3.6l13.2,0c0.6,0,1.2-0.2,1.6-0.7c0.4-0.4,0.6-1,0.6-1.6l0-5.1c0-0.6-0.2-1.2-0.6-1.6c-0.4-0.4-1-0.7-1.6-0.7l-21.6,0
				c-0.6,0-1.2,0.2-1.6,0.7c-0.4,0.4-0.6,1-0.6,1.6l0,32c0,0.6,0.2,1.2,0.7,1.6C228.5,36.8,229,37,229.7,37z"/>
		</g>
	</g>
	<g>
		<g>
			<path class="st0" d="M11.5,83.3c0,0.7,0.2,1.4,0.7,1.9c0.3,0.4,1,0.8,1.9,0.8h7.2c0.7,0,1.4-0.3,1.9-0.8c0.5-0.5,0.7-1.1,0.7-1.9
				l0-13l0-0.2L35.3,46l0.1-0.1c0.2-0.5,0.2-0.9,0.2-1.3c-0.2-1.3-1.1-2.1-2.5-2.1h-8c-1.2,0-2.3,0.7-2.7,1.8l-4.7,11.2l-4.6-11.2
				c-0.5-1.2-1.5-1.8-2.7-1.8H2.5c-0.9,0-1.5,0.4-1.8,0.7c-0.5,0.5-0.7,1.2-0.6,2c0,0.3,0.1,0.6,0.3,0.9l11.2,24.2L11.5,83.3z"/>
			<path class="st0" d="M64.9,48.7c-1.5-2.1-3.5-3.8-5.9-4.9c-2.4-1.1-5.1-1.7-8.1-1.7c-3.3,0-6.2,0.7-8.7,2.1
				c-2.5,1.4-4.6,3.4-6,5.9c-1.4,2.5-2.1,5.4-2.1,8.6l0,11.5c0,0.6,0,1.4,0.2,2.5c0.5,4.3,2.3,7.8,5.3,10.4c3,2.6,6.8,3.8,11.3,3.8
				c3.3,0,6.2-0.7,8.8-2.1c2.6-1.4,4.6-3.4,6-5.9c1.4-2.5,2.1-5.4,2.1-8.7l0-11.5c0-0.6,0-1.4-0.2-2.5
				C67.3,53.3,66.3,50.8,64.9,48.7z M55.3,58.4l0,11.9c0,1.6-0.4,2.7-1.2,3.7h0c-0.8,0.9-1.8,1.3-3.2,1.3c-1.2,0-2.1-0.3-2.8-1
				c-0.8-0.7-1.2-1.7-1.4-3c-0.1-0.6-0.1-0.8-0.1-1l0-11.9c0-1.6,0.4-2.7,1.2-3.7c0.8-0.9,1.8-1.3,3.1-1.3c1.2,0,2.1,0.3,2.9,1.1
				c0.8,0.7,1.2,1.7,1.4,3C55.3,58.1,55.3,58.3,55.3,58.4z"/>
			<path class="st0" d="M70.5,70.8c0,0.9,0.1,1.7,0.2,2.2c0.5,4.1,2.3,7.4,5.3,9.9l0,0c3,2.4,6.7,3.7,11.1,3.7
				c3.2,0,6.1-0.7,8.6-1.9c2.5-1.3,4.5-3.2,5.9-5.6c1.4-2.4,2.1-5.2,2.1-8.2l0-25.6c0-0.7-0.2-1.4-0.7-1.9c-0.5-0.5-1.2-0.8-1.9-0.8
				l-7.3,0c-0.8,0-1.4,0.3-1.9,0.8c-0.5,0.5-0.7,1.2-0.7,1.9l0,25.6c0,1.4-0.3,2.4-1.1,3.2c-0.7,0.8-1.7,1.1-2.9,1.1
				c-1.1,0-2-0.3-2.7-1c-0.7-0.7-1.1-1.5-1.3-2.7c-0.1-0.4,0-0.6,0-0.6l0-25.7c0-0.7-0.2-1.4-0.7-1.9c-0.5-0.5-1.2-0.8-1.9-0.8h-7.3
				c-0.8,0-1.4,0.3-1.9,0.8c-0.5,0.5-0.7,1.2-0.7,1.9L70.5,70.8z"/>
		</g>
		<g>
			<path class="st0" d="M128.6,43.3c-0.5-0.5-1.2-0.8-1.9-0.8l-7.3,0c-0.7,0-1.4,0.3-1.9,0.8c-0.5,0.5-0.7,1.2-0.7,1.9l0,38.3
				c0,0.8,0.3,1.4,0.8,1.9c0.5,0.5,1.2,0.8,1.9,0.8h7.3c0.8,0,1.5-0.3,1.9-0.8c0.4-0.5,0.7-1.1,0.7-1.8l0-13.7h7.8l0,13.6
				c0,0.8,0.3,1.4,0.8,1.9c0.5,0.5,1.2,0.8,1.9,0.8h7.3c0.8,0,1.5-0.3,1.9-0.8c0.4-0.5,0.7-1.1,0.7-1.8l0-38.3
				c0-0.7-0.2-1.4-0.7-1.9c-0.5-0.5-1.2-0.8-1.9-0.8l-7.3,0c-0.8,0-1.4,0.3-1.9,0.8c-0.5,0.5-0.7,1.2-0.7,1.9l0,13.2h-7.8l0-13.2
				C129.3,44.5,129,43.8,128.6,43.3z"/>
			<path class="st0" d="M151.6,83.8l0,0.2c0.2,1.3,1.1,2.1,2.5,2.1h7.9c1.4,0,2.4-0.8,2.7-2.1l1.1-3.8l10.8,0l1.1,3.8
				c0.3,1.3,1.3,2.1,2.7,2.1h7.9c1,0,1.6-0.4,1.9-0.8c0.3-0.4,0.7-1,0.5-2l0-0.4l-11.8-38.5c-0.4-1.2-1.4-2-2.7-2l-9.9,0
				c-1.4,0-2.4,0.8-2.7,2l-11.8,38.3L151.6,83.8z M171.2,60.6l2.5,8.9h-4.9L171.2,60.6z"/>
			<path class="st0" d="M183.8,43.3c-0.3,0.4-0.7,1-0.5,2l0,0.4L194.5,84c0.3,1.3,1.3,2.1,2.7,2.1l7.8,0c1.4,0,2.4-0.8,2.7-2.1
				L219,45.8l0-0.1c0.1-0.4,0.1-0.8,0.1-1c-0.2-1.3-1.1-2.1-2.5-2.1h-7.7c-1.3,0-2.3,0.8-2.7,2.2l-4.9,20l-5-20
				c-0.3-1.4-1.3-2.2-2.7-2.2h-7.9C184.7,42.5,184.1,42.9,183.8,43.3z"/>
			<path class="st0" d="M249.7,54c0.8,0,1.4-0.3,1.9-0.8l0,0c0.5-0.5,0.7-1.1,0.7-1.9l0-6.1c0-0.7-0.2-1.4-0.7-1.9
				c-0.5-0.5-1.2-0.8-1.9-0.8l-25.8,0c-0.7,0-1.4,0.3-1.9,0.8c-0.5,0.5-0.7,1.2-0.7,1.9l0,38.3c0,0.8,0.3,1.4,0.8,1.9
				c0.5,0.5,1.2,0.8,1.9,0.8l25.8,0c0.8,0,1.5-0.3,1.9-0.8c0.4-0.5,0.7-1.1,0.7-1.8l0-6.1c0-0.7-0.2-1.4-0.7-1.9
				c-0.3-0.4-1-0.8-1.9-0.8l-15.9,0l0-4.9h9.6c1.5,0,2.6-1,2.7-2.7l0-6.1c0-0.7-0.3-1.4-0.8-1.9c-0.5-0.5-1.2-0.7-1.9-0.7l-9.5,0
				l0-4.4L249.7,54z"/>
		</g>
	</g>
	<g>
		<path class="st0" d="M75.8,93.8c-1.4-1.6-3.5-2.4-5.7-2.4l-62.2,0c-2.2,0-4.2,0.8-5.6,2.3c-1.4,1.5-2.2,3.4-2.2,5.6L0,191.8
			c0,2.2,0.8,4.2,2.3,5.7c1.5,1.5,3.4,2.2,5.6,2.2l17.6,0c2.3,0,4.3-0.9,5.8-2.5c1.3-1.4,1.9-3.3,1.9-5.3l0-31.7h21.7
			c4.5,0,7.6-3.1,7.8-7.6l0-14.9c0-2.2-0.8-4.2-2.3-5.7c-1.5-1.5-3.4-2.2-5.6-2.2H33.2l0-7.8l36.8,0c2.2,0,4.2-0.8,5.6-2.3
			c1.4-1.5,2.2-3.4,2.2-5.6l0-14.8C77.9,97.2,77.1,95.3,75.8,93.8z"/>
		<path class="st0" d="M156.2,91.4l-17.6,0c-2.2,0-4.2,0.8-5.6,2.3c-1.4,1.5-2.2,3.4-2.2,5.6l-0.1,61.9l0,0.1c0,2.9-0.7,5.1-2.2,6.7
			c-1.5,1.6-3.4,2.3-5.9,2.3c-2.4,0-4.2-0.6-5.7-2c-1.5-1.3-2.4-3.2-2.7-5.6c-0.1-0.8-0.1-1.2-0.1-1.2c0,0,0,0,0,0l0-0.2l0.1-62.1
			c0-2.1-0.7-4-2.1-5.5c-1.4-1.6-3.5-2.4-5.7-2.4l-17.6,0c-2.2,0-4.2,0.8-5.6,2.3c-1.4,1.5-2.2,3.4-2.2,5.6l-0.1,61.9l0,0.2
			c0.1,2.4,0.2,4.2,0.4,5.5c1.3,10.3,5.7,18.6,13.3,24.8c7.4,6.1,16.8,9.2,27.9,9.2c8,0,15.2-1.6,21.3-4.9
			c6.3-3.3,11.3-8.1,14.8-14.1c3.4-6,5.2-13,5.2-20.6l0.1-61.9c0-2.1-0.7-4-2.1-5.5C160.5,92.3,158.4,91.4,156.2,91.4z"/>
		<path class="st0" d="M252.9,99.3c0-2.1-0.7-4-2.1-5.5c-1.4-1.6-3.5-2.4-5.7-2.4l-17.3,0c-4.5,0-7.6,3.1-7.8,7.6l0,0.1l0.1,32.9
			l-20.8-36.3l-0.1-0.2c-1.7-2.7-4.4-4.2-7.4-4.2l-16.6,0c-2.2,0-4.2,0.8-5.6,2.3c-1.4,1.5-2.2,3.4-2.2,5.6l-0.1,92.6
			c0,2.2,0.8,4.2,2.3,5.7c1.5,1.5,3.4,2.2,5.6,2.2l17.3,0c2.3,0,4.3-0.9,5.8-2.5c1.3-1.4,1.9-3.3,1.9-5.4l-0.1-33.4l20.9,36.9
			l0.1,0.2c1.7,2.7,4.4,4.2,7.4,4.2l16.6,0c4.5,0,7.6-3.1,7.8-7.6l0-0.1L252.9,99.3z"/>
	</g>
	<g>
		<g>
			<path class="st0" d="M260.9,91.4h-4.4c-0.2,0-0.3,0.1-0.3,0.1c0,0.1-0.1,0.1-0.1,0.3l0,0.5c0,0.2,0.1,0.3,0.1,0.3
				c0.1,0.1,0.2,0.1,0.3,0.1h1.4l0,5.5c0,0.1,0,0.2,0.1,0.3c0.1,0.1,0.2,0.1,0.3,0.1h0.6c0.2,0,0.4-0.2,0.4-0.4l0-5.5h1.5
				c0.1,0,0.2,0,0.3-0.1c0.1-0.1,0.1-0.2,0.1-0.3l0-0.5c0-0.1,0-0.2-0.1-0.3C261.2,91.5,261.1,91.4,260.9,91.4z"/>
		</g>
		<g>
			<path class="st0" d="M267.6,91.9c0-0.1,0-0.2-0.1-0.3c-0.1-0.1-0.2-0.1-0.3-0.1h-0.6c-0.2,0-0.3,0.1-0.4,0.2l-1.4,2.2l-1.4-2.2
				c-0.1-0.2-0.2-0.3-0.4-0.3h-0.6c-0.2,0-0.3,0.1-0.3,0.1c-0.1,0.1-0.1,0.2-0.1,0.3l0,6.5c0,0.1,0,0.2,0.1,0.3
				c0.1,0.1,0.2,0.1,0.3,0.1h0.6c0.1,0,0.2,0,0.3-0.1c0.1-0.1,0.1-0.2,0.1-0.3l0-4l0.8,1.3c0.1,0.2,0.2,0.3,0.4,0.3h0.3
				c0.2,0,0.3-0.1,0.4-0.2l0.8-1.3l0,4c0,0.2,0.1,0.3,0.1,0.3c0.1,0.1,0.2,0.1,0.3,0.1h0.6c0.2,0,0.3-0.1,0.3-0.1
				c0.1-0.1,0.1-0.2,0.1-0.3L267.6,91.9z"/>
		</g>
	</g>
</g>
</svg>
