<?xml version="1.0" encoding="utf-8"?>
<!-- Generator: Adobe Illustrator 27.4.1, SVG Export Plug-In . SVG Version: 6.00 Build 0)  -->
<svg version="1.1" id="Layer_1" xmlns="http://www.w3.org/2000/svg" xmlns:xlink="http://www.w3.org/1999/xlink" x="0px" y="0px"
	 viewBox="0 0 318.6 106.5" style="enable-background:new 0 0 318.6 106.5;" xml:space="preserve">
<style type="text/css">
	.st0{fill:#FF6600;}
	.st1{fill:#FF6600;stroke:#FF6600;stroke-width:0.75;stroke-miterlimit:10;}
</style>
<g>
	<path class="st0" d="M0.4,48.7c0.1,6.6,0.3,13.2,0.4,19.8C0.9,72.2,1,75.8,1,79.5c0,1.2,0.2,2.3,0.7,3.3c0.3,1.1,0.9,2,1.8,2.8
		c0.8,0.8,1.7,1.4,2.8,1.8c1,0.5,2.1,0.8,3.3,0.7c0.8-0.1,1.5-0.2,2.3-0.3c1.5-0.4,2.7-1.1,3.8-2.2c0.4-0.6,0.9-1.2,1.3-1.7
		c0.8-1.3,1.2-2.8,1.2-4.3C18.1,73.3,18,67,17.9,60.8c1.6,1.7,3.8,2.7,6.2,2.7c1.6,0,3-0.4,4.3-1.2c1.3-0.8,2.3-1.8,3.1-3.1
		c0.7-1.5,1.5-3.1,2.2-4.6c-0.1,6.1-0.1,12.3-0.1,18.4c0,4.8,0.1,9.6,0.2,14.5c0,1.2,0.2,2.3,0.7,3.3c0.3,1.1,0.9,2,1.8,2.8
		c0.8,0.8,1.7,1.4,2.8,1.8c1,0.5,2.1,0.8,3.3,0.7c0.8-0.1,1.5-0.2,2.3-0.3c1.5-0.4,2.7-1.1,3.8-2.2c0.4-0.6,0.9-1.2,1.3-1.7
		c0.8-1.3,1.2-2.8,1.2-4.3c-0.2-8.6-0.3-17.2-0.2-25.7c0.1-8.5,0.2-17.1,0.5-25.6c0.1-4.8,0.3-9.6,0.5-14.4
		c-0.1-0.8-0.2-1.5-0.3-2.3c-0.3-1.1-0.8-2.1-1.5-2.9c-0.4-0.6-0.9-1.2-1.5-1.5c-0.8-0.8-1.8-1.3-2.9-1.5c-0.8-0.1-1.5-0.2-2.3-0.3
		c-0.8,0.1-1.5,0.2-2.3,0.3c-1.1,0.3-2.1,0.8-2.9,1.5c-0.9,0.6-1.7,1.4-2.2,2.4c-2.8,4.1-5.6,8.3-8.1,12.5c-1.4,2.4-2.8,4.8-4.1,7.2
		c-1.3-2.3-2.7-4.5-4-6.8c-1.1-1.9-2.3-3.8-3.4-5.6c-0.4-0.6-0.9-1.2-1.3-1.7c-0.8-0.8-1.7-1.4-2.8-1.8c-0.7-0.4-1.4-0.6-2.2-0.6
		c-1.1-0.3-2.3-0.2-3.4,0.2C5.6,21,5,21.3,4.3,21.6c-0.6,0.4-1.2,0.9-1.7,1.3c-0.8,0.8-1.4,1.7-1.8,2.8C0.2,26.7,0,27.8,0,29
		C0.1,35.6,0.3,42.1,0.4,48.7z"/>
	<path class="st0" d="M57,84.7c0.4,1,0.8,1.9,1.4,2.8c0.8,1.1,1.6,2.3,2.6,3.3c1,1,2.1,1.8,3.2,2.6c0.6,0.4,1.1,0.8,1.7,1.1
		c1.2,0.7,2.6,1.2,3.9,1.7c0.7,0.2,1.4,0.4,2.1,0.6c2.3,0.5,4.6,0.7,6.9,0.6c2.4-0.2,4.8-0.6,7.1-1.3c1.5-0.5,2.9-1.1,4.3-1.8
		c0.7-0.3,1.4-0.7,2.1-1.1c0.6-0.4,1.3-0.8,1.9-1.2c1.1-0.8,2.3-1.7,3.3-2.7c0.3-0.3,0.5-0.5,0.7-0.8c0.7-0.8,1.4-1.7,2-2.6
		c0.8-1.2,1.4-2.7,1.9-4c0.3-0.7,0.5-1.5,0.7-2.3c0.2-1.1,0.3-2.2,0.5-3.3c0-0.4,0.1-0.8,0.1-1.3c0.1-2.2-0.3-4.5-0.6-6.7
		c-0.2-1.4-0.6-2.9-1.1-4.2c-0.5-1.3-1-2.6-1.6-3.9c-0.3-0.6-0.6-1.3-1-1.9c-1-1.9-2.4-3.6-3.7-5.2c-0.9-1.1-1.9-2.2-3-3.1
		c-1.6-1.4-3.4-2.8-5.2-3.9c-2.8-1.7-5.9-3-8.6-4.7c-0.3-0.2-0.7-0.4-1-0.7c-0.8-0.7-1.5-1.4-2.1-2.1c-0.5-0.8-1-1.6-1.5-2.5
		c-0.3-0.8-0.5-1.5-0.6-2.3c0-0.7,0-1.3,0-2c0.1-0.7,0.3-1.3,0.5-2c0.3-0.6,0.6-1.1,1-1.6c0.3-0.4,0.7-0.7,1.1-1.1
		c0.3-0.2,0.7-0.4,1-0.6c0.4-0.1,0.8-0.2,1.2-0.3c0.5,0,0.9,0,1.4,0c0.4,0.1,0.8,0.2,1.2,0.3c0.3,0.1,0.5,0.3,0.8,0.4
		c0.2,0.2,0.4,0.4,0.5,0.6c0.3,0.5,0.6,1,0.8,1.5c0.9,2.6,1.4,5.3,1.8,8c0.3,1.1,0.8,2.1,1.5,2.9c0.6,0.9,1.4,1.7,2.4,2.2
		c1,0.6,2.1,1,3.2,1c1.1,0.3,2.3,0.2,3.4-0.2c0.7-0.3,1.4-0.6,2.1-0.9c1.3-0.8,2.3-1.8,3.1-3.1c0.3-0.7,0.6-1.4,0.9-2.1
		c0.4-1.5,0.4-3.1,0-4.6c-0.4-2.7-0.8-5.5-1.8-8.1c-0.5-1.3-1-2.6-1.6-3.8c-0.3-0.6-0.6-1.2-1-1.8c-0.7-1.1-1.6-2.2-2.5-3.3
		c-0.4-0.5-0.9-0.9-1.4-1.3c-1-0.8-2-1.6-3.1-2.3c-1.1-0.7-2.4-1.2-3.6-1.6c-1.8-0.7-3.7-1-5.7-1.2c-1.2-0.1-2.4-0.1-3.6,0
		c-1.3,0.2-2.7,0.3-4,0.7c-1.3,0.3-2.4,0.9-3.6,1.4c-1.8,0.8-3.3,2-4.9,3.2c-1.6,1.2-2.7,2.8-3.9,4.4c-0.8,1-1.4,2.1-1.9,3.3
		c-0.8,1.9-1.6,3.7-1.9,5.7c-0.2,1.3-0.4,2.7-0.5,4c0,0.7,0,1.3,0,2c0.1,1.4,0.3,2.8,0.5,4.2c0.1,0.7,0.3,1.3,0.5,1.9
		c0.2,0.6,0.4,1.3,0.7,1.9c0.5,1.3,1,2.6,1.7,3.8c1,1.8,2.2,3.4,3.5,5c0.9,1,1.8,2,2.8,2.8c1.7,1.4,3.4,2.7,5.3,3.7
		c2.6,1.5,5.4,2.7,8,4.3c0.3,0.2,0.5,0.3,0.8,0.5c1,0.9,2,1.9,2.9,2.9c0.8,1.2,1.6,2.5,2.2,3.8c0.5,1.4,0.9,2.8,1.1,4.2
		c0.1,0.9,0.1,1.9,0,2.8c-0.1,0.3-0.1,0.6-0.2,0.9c-0.1,0.1-0.1,0.2-0.2,0.4c-0.2,0.3-0.5,0.5-0.8,0.7c-0.9,0.6-1.9,1.1-2.9,1.6
		c-1.1,0.4-2.3,0.8-3.5,1c-0.7,0.1-1.5,0.1-2.2,0c-0.5-0.1-1-0.3-1.6-0.4c-0.4-0.2-0.8-0.4-1.1-0.7c-0.2-0.2-0.4-0.4-0.6-0.6
		c-0.1-0.1-0.2-0.3-0.2-0.4c0-0.1-0.1-0.3-0.1-0.4c0-0.2,0-0.3,0-0.5c0-0.1,0-0.2,0.1-0.3c0,0,0.1-0.1,0.1-0.1
		c0.8-0.8,1.4-1.7,1.8-2.8c0.5-1,0.8-2.1,0.7-3.3c0-1.2-0.2-2.3-0.7-3.3c-0.3-1.1-0.9-2-1.8-2.8c-0.6-0.4-1.2-0.9-1.7-1.3
		c-1.3-0.8-2.8-1.2-4.3-1.2c-0.8,0.1-1.5,0.2-2.3,0.3c-1.5,0.4-2.7,1.1-3.8,2.2c-1,0.9-1.8,2.1-2.6,3.2c-0.2,0.3-0.3,0.5-0.5,0.8
		c-0.5,0.9-0.9,2-1.3,2.9c-0.2,0.6-0.4,1.2-0.5,1.9c-0.2,1.3-0.5,2.8-0.4,4.2c0,1.4,0.2,2.8,0.5,4.2C56.2,82.8,56.6,83.8,57,84.7z"
		/>
	<path class="st0" d="M106.1,31c1.9,5.5,3.8,10.9,5.6,16.4c0.9,2.6,1.7,5.3,2.2,8c0.2,2.3,0.3,4.7,0.3,7.1c0,2.8,0.1,5.7,0.1,8.5
		c0.1,5.7,0.1,11.3,0.2,17c0,3.2,0.1,6.3,0.1,9.5c0,1.2,0.2,2.3,0.7,3.3c0.3,1.1,0.9,2,1.8,2.8c0.8,0.8,1.7,1.4,2.8,1.8
		c1,0.5,2.1,0.8,3.3,0.7c0.8-0.1,1.5-0.2,2.3-0.3c1.5-0.4,2.7-1.1,3.8-2.2c1.5-1.7,2.5-3.8,2.5-6.1c-0.1-5.8-0.1-11.5-0.2-17.3
		c-0.1-5.8-0.1-11.5-0.2-17.3c0-2.1,0-4.1-0.2-6.2c1-1.7,1.9-3.4,2.7-5.2c1.6-3.1,2.9-6.3,4.3-9.5c1.1-2.5,2-5.1,2.9-7.7
		c0.9-2.6,1.7-5.2,2.4-7.8c0.7-2.5,1.5-5.1,2.4-7.5c0.4-1,0.9-1.9,1.5-2.9c0.6-1,1-2.1,1-3.2c0.3-1.1,0.2-2.3-0.2-3.4
		c-0.3-1.1-0.8-2.1-1.5-2.9c-0.6-0.9-1.4-1.7-2.4-2.2c-0.7-0.3-1.4-0.6-2.1-0.9c-1.5-0.4-3.1-0.4-4.6,0c-0.7,0.3-1.4,0.6-2.1,0.9
		c-1.3,0.8-2.3,1.8-3.1,3.1c-0.5,0.8-0.9,1.7-1.3,2.5c-0.7,1.5-1.4,3.1-2,4.6c-0.7,1.8-1.3,3.6-1.8,5.5c-0.5,1.9-1.1,3.7-1.6,5.6
		c-0.5,1.7-1.1,3.3-1.7,5c-0.3-0.9-0.6-1.8-0.9-2.7c-1.9-5.4-3.7-10.9-5.6-16.3c-0.2-0.7-0.5-1.3-0.7-2c-0.3-1.1-0.8-2.1-1.5-2.9
		c-0.6-0.9-1.4-1.7-2.4-2.2c-1-0.6-2.1-1-3.2-1c-1.1-0.3-2.3-0.2-3.4,0.2c-0.7,0.3-1.4,0.6-2.1,0.9c-1.3,0.8-2.3,1.8-3.1,3.1
		c-0.3,0.7-0.6,1.4-0.9,2.1c-0.4,1.5-0.4,3.1,0,4.6C102.3,20,104.2,25.5,106.1,31z"/>
	<path class="st0" d="M150.6,99.9c0.3,1.1,0.8,2.1,1.5,2.9c0.6,0.9,1.4,1.7,2.4,2.2c1,0.6,2.1,1,3.2,1c1.1,0.3,2.3,0.2,3.4-0.2
		c0.7-0.3,1.4-0.6,2.1-0.9c1.3-0.8,2.3-1.8,3.1-3.1c0.3-0.7,0.6-1.4,0.9-2.1c0.4-1.5,0.4-3.1,0-4.6c-0.3-0.7-0.5-1.3-0.6-2
		c-0.2-2.2,0-4.4,0.1-6.6c0.1-2.7,0.2-5.5,0.2-8.2c0.1-4.6,0.3-9.1,0.4-13.7c2.9,0,5.8,0,8.7,0c0.9,0,1.8,0,2.7,0c0.1,0,0.2,0,0.3,0
		c0,4.5,0.1,9,0.2,13.4c0.1,6.5,0.3,13.1,0.5,19.6c0.1,2.2,0.9,4.5,2.5,6.1c0.8,0.8,1.7,1.4,2.8,1.8c1,0.5,2.1,0.8,3.3,0.7
		c0.8-0.1,1.5-0.2,2.3-0.3c1.5-0.4,2.7-1.1,3.8-2.2c1.5-1.7,2.6-3.8,2.5-6.1c-0.3-11.6-0.6-23.3-0.7-34.9c-0.1-11.6-0.1-23.2,0-34.7
		c0.1-6.5,0.2-13.1,0.3-19.6c0-1.2-0.2-2.3-0.7-3.3c-0.3-1.1-0.9-2-1.8-2.8c-0.8-0.8-1.7-1.4-2.8-1.8c-1-0.5-2.1-0.8-3.3-0.7
		c-0.8,0.1-1.5,0.2-2.3,0.3c-1.5,0.4-2.7,1.1-3.8,2.2c-0.4,0.6-0.9,1.2-1.3,1.7c-0.8,1.3-1.2,2.8-1.2,4.3
		c-0.2,11.6-0.4,23.3-0.4,34.9v0c-3.3-0.1-6.6-0.1-9.9,0c-0.4,0-0.8,0-1.1,0.1c0.1-5,0.3-10,0.4-15c0.2-6.2,0.3-12.5,0.5-18.7
		c0-1.2-0.2-2.3-0.7-3.3c-0.3-1.1-0.9-2-1.8-2.8c-0.8-0.8-1.7-1.4-2.8-1.8c-1-0.5-2.1-0.8-3.3-0.7c-0.8,0.1-1.5,0.2-2.3,0.3
		c-1.5,0.4-2.7,1.1-3.8,2.2c-0.4,0.6-0.9,1.2-1.3,1.7c-0.8,1.3-1.2,2.8-1.2,4.3c-0.3,11.6-0.6,23.2-1,34.9
		c-0.3,11.6-0.6,23.1-1,34.7c-0.1,3.2-0.2,6.4-0.3,9.6c0,1.5-0.1,3,0,4.5C149.5,95.6,149.8,97.9,150.6,99.9z"/>
	<path class="st0" d="M199.8,91.4c0.1,0.8,0.2,1.5,0.3,2.3c0,0,0,0,0,0.1c0,0.1,0,0.2,0.1,0.2c0.1,0.3,0.3,0.7,0.4,1
		c0.1,0.4,0.3,0.7,0.4,1.1c0,0,0,0,0,0c0,0,0,0.1,0.1,0.1c0,0,0,0.1,0.1,0.1c0,0,0,0,0,0c0.4,0.6,0.9,1.2,1.3,1.7c0,0,0,0,0.1,0.1
		c0.1,0.1,0.1,0.1,0.2,0.2c0.3,0.2,0.6,0.4,0.9,0.7c0.3,0.2,0.6,0.5,0.9,0.7c0,0,0,0,0,0c0,0,0.1,0,0.1,0.1c1.3,0.7,2.1,1,3.2,1.1
		c0,0,0,0,0.1,0c0.8,0.1,1.5,0.2,2.3,0.3c1.6,0,3-0.4,4.3-1.2c0.3-0.2,0.6-0.5,0.9-0.7c0.1-0.1,0.6-0.5,0.9-0.7c0,0,0.1-0.1,0.1-0.1
		c0.6-0.6,1.1-1.3,1.5-1.9c0-0.1,0.1-0.1,0.1-0.2c0.2-0.4,0.4-0.8,0.5-1.1c0.1-0.3,0.4-0.8,0.5-1.1c0-0.1,0-0.1,0.1-0.2
		c0.1-0.8,0.3-1.7,0.3-2.5c0-0.1,0-0.2,0-0.2c0-0.1-0.2-1.6-0.3-2.4c0,0,0-0.1,0-0.1c0,0,0-0.1,0-0.1c0,0,0,0,0,0
		c-0.3-0.7-0.6-1.4-0.9-2.1c0,0,0,0,0-0.1c0-0.1-0.1-0.1-0.1-0.2c-0.2-0.3-0.4-0.6-0.7-0.9c-0.2-0.3-0.5-0.6-0.7-0.9c0,0,0,0,0,0
		c0,0-0.1-0.1-0.1-0.1c-0.6-0.5-1.2-1.1-1.9-1.5c-0.7-0.4-1.5-0.7-2.2-1c-0.1,0-0.1,0-0.2-0.1c-0.8-0.2-1.7-0.3-2.5-0.3
		c-0.1,0-0.2,0-0.2,0c-0.4,0-0.9,0.1-1.2,0.2c-0.1,0-0.8,0.1-1.2,0.2c0,0-0.1,0-0.1,0c-0.4,0.1-1,0.4-1.2,0.5
		c-0.2,0.1-0.9,0.3-1.2,0.5c-0.7,0.4-1.3,0.9-1.9,1.5c-0.1,0-0.1,0.1-0.1,0.2c0.1-0.1-1.1,1.3-1.5,1.9c-0.8,1.7-1.3,2.8-1.3,4.8
		C199.8,91.3,199.8,91.3,199.8,91.4C199.8,91.3,199.8,91.3,199.8,91.4z"/>
	<path class="st0" d="M223.4,20.9c0.3,8.8,0.4,17.7,0.5,26.5c0.1,9.9,0,19.9-0.2,29.8c-0.1,5.6-0.3,11.2-0.5,16.8
		c0,1.2,0.2,2.3,0.7,3.3c0.3,1.1,0.9,2,1.8,2.8c0.8,0.8,1.7,1.4,2.8,1.8c1,0.5,2.1,0.8,3.3,0.7c0.8-0.1,1.5-0.2,2.3-0.3
		c1.5-0.4,2.7-1.1,3.8-2.2c0.4-0.6,0.9-1.2,1.3-1.7c0.8-1.3,1.2-2.8,1.2-4.3c0.3-10,0.6-20,0.6-30c0-0.3,0-0.5,0-0.8
		c2.4-0.2,4.8-0.3,7.1-0.5c0,0,0.1,0,0.1,0c0.6,0.1,1.2,0.1,1.8,0.1c0.2,0,0.3,0,0.5,0c0.8-0.1,1.7-0.2,2.5-0.3c0.1,0,0.2,0,0.2,0
		c0.3-0.1,0.7-0.2,1-0.3c1.1-0.3,2.1-0.8,2.9-1.5c0.9-0.6,1.7-1.4,2.2-2.4c0.3-0.7,0.6-1.4,0.9-2.1c0.1-0.5,0.2-1,0.3-1.4
		c0.4-0.9,0.6-1.8,0.5-2.8c-0.1-0.8-0.2-1.5-0.3-2.3c-0.4-1.5-1.1-2.7-2.2-3.8c-0.6-0.4-1.2-0.9-1.7-1.3c-1.3-0.8-2.8-1.2-4.3-1.2
		c-3-0.1-6.1-0.2-9.1-0.3c-0.8,0-1.7,0-2.5-0.1c0-2.9-0.1-5.8-0.1-8.7c0-2.1-0.1-4.3-0.1-6.4c0.1,0.1,0.3,0.1,0.4,0.1
		c0.4,0.1,1,0.1,1.2,0.2c0,0,0.7,0.1,1.1,0.2c0.2,0,0.4,0.1,0.5,0.1c1.8,0.3,3.6,0.6,5.5,0.8c2.2,0.3,4.4,0.5,6.6,0.6
		c1.2,0,2.5,0.1,3.7,0c1.2,0,2.3-0.2,3.3-0.7c1.1-0.3,2-0.9,2.8-1.8c0.4-0.5,0.8-1.1,1.2-1.6c-0.1,7.1-0.1,14.2,0,21.3
		c0,8.3,0.2,16.6,0.3,24.8c0.1,4.7,0.2,9.3,0.3,14c0,1.2,0.2,2.3,0.7,3.3c0.3,1.1,0.9,2,1.8,2.8c0.8,0.8,1.7,1.4,2.8,1.8
		c1,0.5,2.1,0.8,3.3,0.7c0.8-0.1,1.5-0.2,2.3-0.3c1.5-0.4,2.7-1.1,3.8-2.2c0.4-0.6,0.9-1.2,1.3-1.7c0.8-1.3,1.2-2.8,1.2-4.3
		c-0.2-8.3-0.4-16.6-0.5-25c0-0.2,0-0.4,0-0.6c0.3,0.4,0.6,0.7,0.9,1.1c0.8,0.8,1.7,1.4,2.8,1.8c1,0.5,2.1,0.8,3.3,0.7
		c1.6,0,3-0.4,4.3-1.2c1.1-0.8,2.2-1.6,3.1-2.6c0.7-0.8,1.3-1.6,1.9-2.4c0,0,0.1-0.1,0.1-0.1c-0.1,4.1-0.1,8.2-0.2,12.2
		c-0.1,3.8-0.1,7.6-0.2,11.3c0,1.2,0.2,2.3,0.7,3.3c0.3,1.1,0.9,2,1.8,2.8c0.8,0.8,1.7,1.4,2.8,1.8c1,0.5,2.1,0.8,3.3,0.7
		c0.8-0.1,1.5-0.2,2.3-0.3c1.5-0.4,2.7-1.1,3.8-2.2c0.4-0.6,0.9-1.2,1.3-1.7c0.8-1.3,1.2-2.8,1.2-4.3c0.1-6.7,0.2-13.4,0.4-20.1
		c0.1-6.7,0.2-13.4,0.4-20.1c0.1-3.8,0.1-7.6,0.2-11.3c-0.1-0.8-0.2-1.5-0.3-2.3c-0.3-0.7-0.6-1.4-0.9-2.1c-0.4-0.6-0.9-1.2-1.3-1.7
		c-0.8-0.8-1.7-1.4-2.8-1.8c-0.7-0.4-1.4-0.6-2.2-0.6c-0.8-0.2-1.5-0.2-2.3,0c-0.8,0-1.5,0.2-2.2,0.6c-1.1,0.3-2,0.9-2.8,1.8
		c-3.4,3.1-6.3,6.7-9.1,10.4c-0.7,1-1.5,2-2.1,3.1c-1.9-4-3.8-8-5.8-12c-1.2-2.4-2.5-4.8-3.7-7.2c-0.4-0.6-0.9-1.2-1.3-1.7
		c-0.8-0.8-1.7-1.4-2.8-1.8c-0.7-0.4-1.4-0.6-2.2-0.6c-1.1-0.3-2.3-0.2-3.4,0.2c-0.7,0.3-1.4,0.6-2.1,0.9c-0.6,0.4-1.2,0.9-1.7,1.3
		c-0.7,0.7-1.2,1.4-1.6,2.3c0-0.2-0.1-0.4-0.1-0.5c0-0.2-0.1-0.4-0.2-0.6c-0.2-0.5-0.6-1.6-1-2.3c0-0.1-0.1-0.2-0.2-0.3
		c-0.5-0.7-1-1.3-1.5-1.9c-0.1-0.1-0.1-0.1-0.2-0.2c-0.6-0.5-1.3-1-1.9-1.5c-0.1-0.1-0.2-0.1-0.3-0.2c-0.7-0.4-1.5-0.7-2.3-1
		c-0.1,0-0.2-0.1-0.3-0.1c-1-0.2-2-0.3-3-0.4c-2.3-0.2-4.5-0.4-6.8-0.7c-4.5-0.4-9.1-0.9-13.6-1.3c-1.3-0.1-2.6-0.2-3.8-0.4
		c-0.3,0-0.5-0.1-0.8-0.1c-1,0-2,0.2-2.9,0.3c-0.1,0-0.2,0-0.3,0.1c-0.8,0.3-1.6,0.5-2.3,1c-1.4,0.9-2.6,2-3.4,3.5
		c-0.6,1-1,2.1-1,3.2c-0.3,1.1-0.2,2.3,0.2,3.4C222.4,19.3,222.8,20.2,223.4,20.9z"/>
</g>
</svg>
