<?xml version="1.0" encoding="utf-8"?>
<!-- Generator: Adobe Illustrator 27.4.1, SVG Export Plug-In . SVG Version: 6.00 Build 0)  -->
<svg version="1.1" id="Layer_1" xmlns="http://www.w3.org/2000/svg" xmlns:xlink="http://www.w3.org/1999/xlink" x="0px" y="0px"
	 viewBox="0 0 273.3 252.8" style="enable-background:new 0 0 273.3 252.8;" xml:space="preserve">
<style type="text/css">
	.st0{fill:#FF6600;}
	.st1{fill:#FF6600;stroke:#FF6600;stroke-width:0.75;stroke-miterlimit:10;}
</style>
<path class="st0" d="M267.3,2.9c-1.2,30.1-2.5,60.3-7.7,90c-4.6,26-12.4,51.5-25.5,74.5c-12.5,22-29.7,41.1-51.5,54.1
	c-22.8,13.6-49.1,20.8-75.3,23.7c-30.8,3.3-61.9,1.1-92.6-1.7c-3.9-0.4-7.7-0.7-11.6-1.1c-1.6-0.2-3,1.5-3,3c0,1.7,1.4,2.8,3,3
	c31.4,2.9,63.1,5.9,94.7,3.6c27.6-2,55.1-8.1,79.8-20.8c11.8-6.1,22.8-13.8,32.5-22.9c9.4-8.8,17.5-19,24.4-29.8
	c14.2-22.2,23.3-47.3,28.8-73c6.4-30,8.3-60.7,9.6-91.3c0.2-3.8,0.3-7.5,0.5-11.3C273.5-1,267.5-1,267.3,2.9L267.3,2.9z"/>
</svg>
