<?xml version="1.0" encoding="UTF-8" standalone="no"?>
<svg
   id="Layer_1"
   viewBox="0 0 1001.24 488.9"
   version="1.1"
   sodipodi:docname="msyhfm_logo.svg"
   inkscape:version="1.2.2 (b0a8486541, 2022-12-01)"
   xmlns:inkscape="http://www.inkscape.org/namespaces/inkscape"
   xmlns:sodipodi="http://sodipodi.sourceforge.net/DTD/sodipodi-0.dtd"
   xmlns="http://www.w3.org/2000/svg"
   xmlns:svg="http://www.w3.org/2000/svg">
  <sodipodi:namedview
     id="namedview319"
     pagecolor="#ffffff"
     bordercolor="#000000"
     borderopacity="0.25"
     inkscape:showpageshadow="2"
     inkscape:pageopacity="0.0"
     inkscape:pagecheckerboard="0"
     inkscape:deskcolor="#d1d1d1"
     showgrid="false"
     inkscape:zoom="1.3553194"
     inkscape:cx="500.98891"
     inkscape:cy="244.22287"
     inkscape:window-width="3440"
     inkscape:window-height="1371"
     inkscape:window-x="0"
     inkscape:window-y="0"
     inkscape:window-maximized="1"
     inkscape:current-layer="Layer_1" />
  <defs
     id="defs304">
    <style
       id="style302">.cls-1{fill:#f60;}</style>
  </defs>
  <path
     class="cls-1"
     d="m28.72,242.52c.39,19.57.79,39.13,1.18,58.7.22,10.99.44,21.97.66,32.96-.13,3.52.6,6.8,2.2,9.85,1.03,3.17,2.79,5.91,5.29,8.23,2.32,2.49,5.06,4.26,8.23,5.29,3.05,1.6,6.33,2.33,9.85,2.2,2.27-.3,4.53-.61,6.8-.91,4.33-1.21,8.09-3.41,11.28-6.57,1.33-1.72,2.67-3.45,4-5.17,2.31-3.99,3.48-8.29,3.49-12.9-.37-18.57-.75-37.15-1.12-55.72,4.78,4.96,11.4,7.92,18.45,7.92,4.62-.01,8.92-1.18,12.9-3.49,3.84-2.27,6.9-5.33,9.17-9.17,2.13-4.58,4.32-9.13,6.55-13.66-.25,18.22-.35,36.44-.25,54.67.08,14.31.28,28.62.63,42.92-.13,3.52.6,6.8,2.2,9.85,1.03,3.17,2.79,5.91,5.29,8.23,2.32,2.49,5.06,4.26,8.23,5.29,3.05,1.6,6.33,2.33,9.85,2.2,2.27-.3,4.53-.61,6.8-.91,4.33-1.21,8.09-3.41,11.28-6.57,1.33-1.72,2.67-3.45,4-5.17,2.31-3.99,3.48-8.29,3.49-12.9-.62-25.49-.78-50.98-.6-76.48.18-25.37.68-50.73,1.38-76.09.39-14.31.85-28.61,1.34-42.91-.3-2.27-.61-4.53-.91-6.8-.79-3.33-2.32-6.23-4.58-8.69-1.14-1.92-2.67-3.45-4.59-4.59-2.47-2.26-5.37-3.79-8.69-4.58-2.27-.3-4.53-.61-6.8-.91-2.27.3-4.53.61-6.8.91-3.33.79-6.23,2.32-8.69,4.58-2.78,1.8-4.98,4.19-6.58,7.17-8.45,12.15-16.5,24.58-24.12,37.27-4.24,7.06-8.34,14.21-12.31,21.42-4-6.69-8-13.38-12-20.07-3.34-5.59-6.68-11.18-10.03-16.77-1.33-1.72-2.67-3.45-4-5.17-2.32-2.49-5.06-4.26-8.23-5.29-1.99-1.16-4.14-1.74-6.45-1.75-3.4-.76-6.8-.61-10.19.46-2.04.86-4.07,1.72-6.11,2.58-1.72,1.33-3.45,2.67-5.17,4-2.49,2.32-4.26,5.06-5.29,8.23-1.6,3.05-2.33,6.33-2.2,9.85.39,19.5.79,39,1.18,58.5Z"
     id="path306" />
  <path
     class="cls-1"
     d="m196.82,349.58c1.23,2.91,2.39,5.72,4.16,8.34,2.29,3.39,4.8,6.72,7.65,9.67,2.85,2.96,6.26,5.4,9.52,7.85,1.64,1.23,3.37,2.34,5.19,3.31,3.71,1.99,7.67,3.6,11.61,5.04,1.99.73,4.03,1.31,6.1,1.73,6.69,1.38,13.72,2.22,20.57,1.65,7.1-.6,14.29-1.66,21.08-3.93,4.38-1.46,8.65-3.33,12.86-5.22,2.13-.96,4.22-2,6.25-3.15,1.92-1.09,3.78-2.27,5.56-3.57,3.4-2.49,6.91-5.04,9.94-8.02.78-.76,1.52-1.56,2.22-2.38,2.07-2.44,4.06-5,5.88-7.62,2.51-3.62,4.13-7.9,5.73-11.95.87-2.2,1.51-4.47,1.93-6.8.59-3.24.99-6.52,1.35-9.79.14-1.24.22-2.5.26-3.75.21-6.61-.77-13.32-1.87-19.8-.73-4.27-1.84-8.48-3.31-12.55-1.43-3.97-3.11-7.86-4.84-11.69-.87-1.93-1.83-3.82-2.86-5.66-3.11-5.57-7-10.59-10.98-15.57-2.67-3.34-5.63-6.46-8.84-9.29-4.83-4.26-10.03-8.23-15.53-11.59-8.33-5.1-17.4-8.88-25.68-14.07-.99-.62-1.98-1.27-2.94-1.94-2.26-1.95-4.38-4.07-6.34-6.33-1.61-2.34-3.05-4.79-4.31-7.34-.8-2.27-1.44-4.59-1.93-6.94-.12-1.96-.13-3.91-.01-5.87.42-1.99.96-3.96,1.62-5.88.85-1.67,1.79-3.3,2.83-4.86,1-1.11,2.05-2.17,3.15-3.18.96-.63,1.96-1.21,2.97-1.75,1.17-.38,2.36-.7,3.56-.96,1.39-.07,2.78-.07,4.17,0,1.22.27,2.43.6,3.62.98.76.41,1.51.84,2.24,1.3.56.53,1.11,1.08,1.63,1.65.9,1.4,1.72,2.85,2.47,4.35,2.73,7.69,4.02,15.84,5.21,23.89.79,3.33,2.32,6.23,4.58,8.69,1.8,2.78,4.19,4.98,7.17,6.58,2.93,1.87,6.1,2.88,9.51,3.03,3.4.76,6.8.61,10.19-.46,2.04-.86,4.07-1.72,6.11-2.58,3.84-2.27,6.9-5.33,9.17-9.17.86-2.04,1.72-4.07,2.58-6.11,1.22-4.53,1.22-9.06,0-13.59-1.21-8.12-2.49-16.32-5.27-24.07-1.38-3.86-2.98-7.66-4.75-11.36-.86-1.79-1.82-3.54-2.91-5.2-2.22-3.4-4.74-6.64-7.43-9.68-1.25-1.41-2.62-2.71-4.09-3.89-2.93-2.35-5.96-4.86-9.23-6.79-3.38-1.99-7.19-3.44-10.78-4.9-5.45-2.21-11.1-2.85-16.92-3.56-3.6-.44-7.23-.41-10.82.06-4,.52-8.06.9-11.96,1.97-3.73,1.03-7.27,2.68-10.81,4.2-5.39,2.31-9.85,5.87-14.41,9.53-4.62,3.7-8.13,8.41-11.65,13.14-2.25,3.02-4.11,6.31-5.6,9.77-2.37,5.52-4.71,10.87-5.74,16.8-.69,3.95-1.27,7.96-1.53,11.96-.12,1.95-.12,3.91,0,5.87.26,4.14.86,8.27,1.58,12.35.35,1.94.8,3.86,1.37,5.75.56,1.89,1.24,3.74,2,5.57,1.57,3.76,3.06,7.57,5.01,11.16,2.87,5.3,6.65,10.13,10.48,14.75,2.53,3.06,5.37,5.87,8.45,8.37,5.06,4.1,10.2,7.91,15.85,11.13,7.81,4.44,16.09,8.03,23.65,12.92.75.49,1.5.99,2.23,1.5,3.12,2.64,6,5.54,8.64,8.66,2.51,3.56,4.71,7.32,6.58,11.25,1.49,4.03,2.64,8.17,3.41,12.4.23,2.79.3,5.59.14,8.39-.2.91-.44,1.82-.71,2.71-.2.36-.41.72-.63,1.08-.73.77-1.49,1.51-2.28,2.22-2.71,1.82-5.57,3.41-8.53,4.81-3.39,1.25-6.86,2.25-10.41,2.95-2.2.15-4.41.17-6.62.05-1.56-.34-3.09-.75-4.61-1.25-1.16-.6-2.29-1.26-3.39-1.96-.62-.58-1.22-1.17-1.81-1.79-.26-.41-.5-.82-.74-1.24-.11-.39-.22-.78-.32-1.18-.01-.45,0-.9,0-1.35.07-.27.14-.53.21-.79.14-.14.28-.28.43-.42,2.49-2.32,4.26-5.06,5.29-8.23,1.6-3.05,2.33-6.33,2.2-9.85.13-3.52-.6-6.8-2.2-9.85-1.03-3.17-2.79-5.91-5.29-8.23-1.72-1.33-3.45-2.67-5.17-4-3.99-2.31-8.29-3.48-12.9-3.49-2.27.3-4.53.61-6.8.91-4.33,1.21-8.09,3.41-11.28,6.57-2.95,2.77-5.43,6.13-7.65,9.49-.5.76-.97,1.55-1.39,2.37-1.45,2.81-2.63,5.8-3.76,8.75-.7,1.81-1.2,3.7-1.52,5.61-.66,3.99-1.39,8.24-1.32,12.35.07,4.14.7,8.31,1.51,12.35.61,3.05,1.79,5.81,3,8.67Z"
     id="path308" />
  <path
     class="cls-1"
     d="m342.73,189.98c5.59,16.22,11.27,32.42,16.77,48.66,2.66,7.83,5.1,15.76,6.52,23.91.69,6.97.78,13.99.85,20.99.08,8.42.16,16.84.24,25.25.16,16.84.32,33.67.48,50.51.09,9.43.18,18.86.27,28.28-.13,3.52.6,6.8,2.2,9.85,1.03,3.17,2.79,5.91,5.29,8.23,2.32,2.49,5.06,4.26,8.23,5.29,3.05,1.6,6.33,2.33,9.85,2.2,2.27-.3,4.53-.61,6.8-.91,4.33-1.21,8.09-3.41,11.28-6.57,4.57-4.97,7.55-11.17,7.49-18.08-.16-17.09-.32-34.18-.49-51.27-.16-17.09-.32-34.18-.49-51.26-.06-6.13-.09-12.27-.51-18.39,2.83-5.04,5.55-10.14,8.14-15.31,4.62-9.23,8.73-18.66,12.72-28.17,3.15-7.5,6.05-15.11,8.69-22.8,2.62-7.62,4.9-15.33,7.12-23.07,2.15-7.5,4.34-15.01,7.18-22.28,1.33-2.91,2.8-5.75,4.44-8.5,1.87-2.93,2.88-6.1,3.03-9.51.76-3.4.61-6.8-.46-10.19-.79-3.33-2.32-6.23-4.58-8.69-1.8-2.78-4.19-4.98-7.17-6.58-2.04-.86-4.07-1.72-6.11-2.58-4.53-1.22-9.06-1.22-13.59,0-2.04.86-4.07,1.72-6.11,2.58-3.84,2.27-6.9,5.33-9.17,9.17-1.46,2.45-2.79,4.98-4,7.56-2.12,4.51-4.04,9.12-5.83,13.77-2.06,5.35-3.77,10.83-5.39,16.32-1.63,5.52-3.16,11.08-4.84,16.58-1.52,4.99-3.16,9.95-4.9,14.87-.93-2.65-1.85-5.31-2.77-7.96-5.56-16.13-11.12-32.25-16.69-48.38-.69-1.99-1.37-3.97-2.06-5.96-.79-3.33-2.32-6.23-4.58-8.69-1.8-2.78-4.19-4.98-7.17-6.58-2.93-1.87-6.1-2.88-9.51-3.03-3.4-.76-6.8-.61-10.19.46-2.04.86-4.07,1.72-6.11,2.58-3.84,2.27-6.9,5.33-9.17,9.17-.86,2.04-1.72,4.07-2.58,6.11-1.22,4.53-1.22,9.06,0,13.59,5.62,16.29,11.23,32.57,16.85,48.86Z"
     id="path310" />
  <path
     class="cls-1"
     d="m474.77,394.59c.79,3.33,2.32,6.23,4.58,8.69,1.8,2.78,4.19,4.98,7.17,6.58,2.93,1.87,6.1,2.88,9.51,3.03,3.4.76,6.8.61,10.2-.46,2.04-.86,4.07-1.72,6.11-2.58,3.84-2.27,6.9-5.33,9.17-9.17.86-2.04,1.72-4.07,2.58-6.11,1.22-4.53,1.22-9.06,0-13.59-.8-1.95-1.39-3.95-1.83-6-.46-6.46-.02-13.01.16-19.46.23-8.15.45-16.3.68-24.45.38-13.54.75-27.09,1.13-40.63h33.88c.3.01.6,0,.9,0,.14,13.3.33,26.61.58,39.91.35,19.4.82,38.8,1.38,58.19.19,6.67,2.72,13.31,7.49,18.08,2.32,2.49,5.06,4.26,8.23,5.29,3.05,1.6,6.33,2.33,9.85,2.2,2.27-.3,4.53-.61,6.8-.91,4.33-1.21,8.09-3.41,11.28-6.57,4.51-4.92,7.69-11.23,7.49-18.08-1.01-34.56-1.68-69.12-2.02-103.69-.33-34.39-.33-68.79,0-103.18.19-19.4.49-38.8.89-58.2.13-3.52-.6-6.8-2.2-9.85-1.03-3.17-2.79-5.91-5.29-8.23-2.32-2.49-5.06-4.26-8.23-5.29-3.05-1.6-6.33-2.33-9.85-2.2-2.27.3-4.53.61-6.8.91-4.33,1.21-8.09,3.41-11.28,6.57-1.33,1.73-2.67,3.45-4,5.17-2.31,3.99-3.48,8.29-3.49,12.9-.72,34.56-1.1,69.13-1.14,103.71h0c-9.78-.31-19.58-.28-29.36.1-1.12.04-2.25.1-3.37.15.41-14.87.82-29.73,1.24-44.6.51-18.55,1.03-37.1,1.54-55.66.13-3.52-.6-6.8-2.2-9.85-1.03-3.17-2.79-5.91-5.29-8.23-2.32-2.49-5.06-4.26-8.23-5.29-3.05-1.6-6.33-2.33-9.85-2.2-2.27.3-4.53.61-6.8.91-4.33,1.21-8.09,3.41-11.28,6.57-1.33,1.72-2.67,3.45-4,5.17-2.31,3.99-3.48,8.29-3.49,12.9-.96,34.5-1.91,69.01-2.87,103.51-.95,34.33-1.9,68.66-2.85,102.99-.26,9.54-.53,19.07-.79,28.61-.12,4.42-.27,8.86.07,13.27.48,6.34,1.17,13.06,3.62,19.02Z"
     id="path312" />
  <path
     class="cls-1"
     d="m620.88,369.24c.3,2.27.61,4.53.91,6.8.01.07.02.13.03.2.05.25.13.49.22.73.43,1.02.86,2.04,1.29,3.05.43,1.05.87,2.09,1.32,3.13.02.05.05.1.07.15.05.11.11.22.18.32.06.1.13.2.21.3.02.02.03.04.05.06,1.33,1.72,2.67,3.45,4,5.17.05.06.1.13.16.19.16.18.34.35.53.5.86.67,1.72,1.33,2.59,2,.88.69,1.76,1.37,2.65,2.05.04.03.09.06.13.09.11.07.22.14.34.2,3.79,1.98,6.28,2.89,9.56,3.39.05.02.1.03.15.05,2.27.3,4.53.61,6.8.91,4.61-.01,8.92-1.18,12.9-3.49.93-.66,1.91-1.47,2.72-2.09.27-.21,1.84-1.36,2.68-2.07.09-.08.18-.16.27-.24,1.69-1.67,3.13-3.85,4.41-5.66.14-.2.27-.4.37-.61.53-1.07,1.04-2.45,1.42-3.35.34-.81,1.04-2.25,1.41-3.39.07-.22.12-.44.16-.66.42-2.46.92-4.97.98-7.48,0-.23-.01-.45-.03-.68-.02-.18-.5-4.85-.96-7.11-.03-.13-.06-.26-.1-.38-.03-.1-.07-.2-.1-.3,0-.02-.02-.05-.03-.07-.86-2.04-1.72-4.07-2.58-6.11-.03-.06-.05-.12-.08-.18-.11-.23-.24-.43-.39-.64-.67-.86-1.33-1.72-2-2.59-.67-.89-1.36-1.77-2.05-2.65-.03-.04-.07-.08-.1-.12-.08-.09-.16-.17-.25-.25-1.76-1.61-3.64-3.14-5.68-4.38-2.04-1.24-4.6-2.08-6.64-2.84-.21-.08-.42-.14-.64-.19-2.43-.49-4.91-.86-7.39-.99-.23-.01-.45,0-.68.02-1.18.12-2.59.35-3.55.47-.4.05-2.37.27-3.51.47-.11.02-.22.04-.33.07-1.23.31-2.85,1.15-3.69,1.5-.73.31-2.53.91-3.58,1.56-2.03,1.26-3.9,2.78-5.67,4.37-.16.14-.29.29-.42.45.34-.43-3.39,3.78-4.34,5.74-2.42,4.99-3.79,8.44-3.76,14.14,0,.11,0,.21.02.32,0,.03,0,.05,0,.08Z"
     id="path314" />
  <path
     class="cls-1"
     d="m690.94,159.98c.8,26.24,1.3,52.49,1.48,78.75.21,29.53.03,59.05-.55,88.57-.32,16.65-.77,33.3-1.34,49.95-.13,3.52.6,6.8,2.2,9.85,1.03,3.17,2.79,5.91,5.29,8.23,2.32,2.49,5.06,4.26,8.23,5.29,3.05,1.6,6.33,2.33,9.85,2.2,2.27-.3,4.53-.61,6.8-.91,4.33-1.21,8.09-3.41,11.28-6.57,1.33-1.72,2.67-3.45,4-5.17,2.31-3.99,3.48-8.29,3.49-12.9,1.02-29.66,1.64-59.33,1.87-89.01,0-.78,0-1.55.01-2.33,7.08-.52,14.15-1.03,21.23-1.55.13.02.26.03.39.05,1.8.23,3.61.35,5.43.25.49-.03.98-.07,1.46-.12,2.45-.29,4.92-.63,7.36-.99.24-.04.48-.08.73-.12,1.03-.19,2.05-.47,3.03-.83,3.33-.79,6.23-2.32,8.69-4.58,2.78-1.8,4.98-4.19,6.58-7.17.86-2.04,1.72-4.07,2.58-6.11.44-1.41.72-2.82.85-4.24,1.14-2.65,1.66-5.47,1.55-8.46-.3-2.27-.61-4.53-.91-6.8-1.21-4.33-3.41-8.09-6.57-11.28-1.72-1.33-3.45-2.67-5.17-4-3.99-2.31-8.29-3.48-12.9-3.49-9-.26-18.01-.51-27.01-.77-2.47-.07-4.95-.14-7.42-.21-.09-8.61-.22-17.22-.38-25.83-.12-6.36-.26-12.71-.42-19.07.39.15.76.28,1.07.34,1.16.26,3.04.42,3.66.5.11.02,1.94.34,3.17.45.52.1,1.04.2,1.57.3,5.38.98,10.79,1.68,16.21,2.4,6.5.87,13.04,1.42,19.59,1.66,3.71.13,7.42.16,11.12.09,3.52.13,6.8-.6,9.85-2.2,3.17-1.03,5.91-2.79,8.23-5.29,1.21-1.57,2.43-3.14,3.64-4.71-.16,21.13-.19,42.27-.08,63.41.13,24.59.45,49.18.96,73.77.28,13.87.63,27.74,1.03,41.61-.13,3.52.6,6.8,2.2,9.85,1.03,3.17,2.79,5.91,5.29,8.23,2.32,2.49,5.06,4.26,8.23,5.29,3.05,1.6,6.33,2.33,9.85,2.2,2.27-.3,4.53-.61,6.8-.91,4.33-1.21,8.09-3.41,11.28-6.57,1.33-1.72,2.67-3.45,4-5.17,2.31-3.99,3.48-8.29,3.49-12.9-.72-24.71-1.25-49.42-1.59-74.14,0-.6-.01-1.2-.02-1.79.8,1.11,1.69,2.17,2.68,3.17,2.32,2.49,5.06,4.26,8.23,5.29,3.05,1.6,6.33,2.33,9.85,2.2,4.61-.01,8.92-1.18,12.9-3.49,3.23-2.35,6.63-4.74,9.3-7.76,2.02-2.29,3.84-4.78,5.66-7.23.09-.12.17-.24.26-.37-.22,12.13-.44,24.25-.67,36.38-.21,11.23-.41,22.46-.62,33.69-.13,3.52.6,6.8,2.2,9.85,1.03,3.17,2.79,5.91,5.29,8.23,2.32,2.49,5.06,4.26,8.23,5.29,3.05,1.6,6.33,2.33,9.85,2.2,2.27-.3,4.53-.61,6.8-.91,4.33-1.21,8.09-3.41,11.28-6.57,1.33-1.72,2.66-3.45,4-5.17,2.31-3.99,3.48-8.29,3.49-12.9.36-19.93.73-39.87,1.09-59.8.36-19.93.73-39.87,1.09-59.8.21-11.23.41-22.46.62-33.69-.3-2.27-.61-4.53-.91-6.8-.86-2.04-1.72-4.07-2.58-6.11-1.33-1.72-2.67-3.45-4-5.17-2.32-2.49-5.06-4.26-8.23-5.29-1.99-1.16-4.14-1.74-6.45-1.75-2.27-.61-4.53-.61-6.8,0-2.31,0-4.46.59-6.45,1.75-3.17,1.03-5.91,2.79-8.23,5.29-10.06,9.35-18.81,19.82-27,30.83-2.21,2.97-4.31,6-6.34,9.09-5.52-11.94-11.23-23.8-17.16-35.54-3.62-7.17-7.32-14.3-11.09-21.39-1.33-1.72-2.67-3.45-4-5.17-2.32-2.49-5.06-4.26-8.23-5.29-1.99-1.16-4.14-1.74-6.45-1.75-3.4-.76-6.8-.61-10.2.46-2.04.86-4.07,1.72-6.11,2.58-1.72,1.33-3.45,2.67-5.17,4-2.12,1.97-3.7,4.25-4.77,6.83-.1-.56-.22-1.11-.35-1.62-.14-.56-.32-1.11-.54-1.64-.59-1.48-1.79-4.64-2.87-6.75-.15-.29-.31-.57-.5-.84-1.36-1.99-2.86-3.88-4.41-5.72-.18-.21-.37-.41-.57-.59-1.78-1.62-3.75-3.07-5.71-4.43-.29-.2-.59-.38-.91-.53-2.22-1.09-4.55-2.14-6.93-2.9-.34-.11-.69-.19-1.03-.26-2.95-.57-5.94-.9-8.93-1.19-6.71-.65-13.42-1.3-20.13-1.95-13.49-1.3-26.98-2.61-40.47-3.91-3.8-.37-7.59-.73-11.39-1.1-.75-.07-1.5-.16-2.25-.18-2.86-.07-5.91.56-8.6,1.03-.3.05-.61.13-.9.23-2.31.83-4.7,1.62-6.79,2.9-4.26,2.59-7.7,5.93-10.22,10.25-1.87,2.93-2.88,6.1-3.03,9.51-.76,3.4-.61,6.8.46,10.19.65,2.74,1.81,5.19,3.46,7.35Z"
     id="path316" />
  <g
     id="g107"
     transform="matrix(1.2997229,0,0,1.3984734,250.8494,-382.08578)">
	<g
   id="g105">
		<path
   class="st0"
   d="m 588.68,450.63 c 30.89,1.01 61.83,2.01 92.54,5.73 27.84,3.37 55.58,9.11 81.75,19.36 23.7,9.28 46.22,22.54 63.6,41.35 17.37,18.79 28.93,42.21 35.7,66.76 8,29.02 9.49,59.28 10.3,89.21 0.1,3.69 0.19,7.39 0.28,11.08 0.09,3.85 6.09,3.87 6,0 -0.75,-30.99 -1.54,-62.28 -8.47,-92.63 -5.85,-25.62 -16.43,-50.24 -32.88,-70.87 -16.44,-20.61 -38.55,-35.68 -62.49,-46.32 -25.86,-11.5 -53.53,-18.24 -81.47,-22.3 -30.83,-4.48 -61.99,-5.91 -93.1,-6.98 -3.92,-0.13 -7.84,-0.26 -11.76,-0.39 -3.86,-0.12 -3.86,5.88 0,6 z"
   id="path103"
   style="fill:#ff6600" />

	</g>

</g>
</svg>
