<?xml version="1.0" encoding="utf-8"?>
<!-- Generator: Adobe Illustrator 27.4.1, SVG Export Plug-In . SVG Version: 6.00 Build 0)  -->
<svg version="1.1" id="Layer_1" xmlns="http://www.w3.org/2000/svg" xmlns:xlink="http://www.w3.org/1999/xlink" x="0px" y="0px"
	 viewBox="0 0 1080 1080" style="enable-background:new 0 0 1080 1080;" xml:space="preserve">
<style type="text/css">
	.st0{fill:#FF6600;}
</style>
<g>
	<path class="st0" d="M201.24,441.78c0.13,6.59,0.27,13.18,0.4,19.76c0.07,3.7,0.15,7.4,0.22,11.1c-0.04,1.19,0.2,2.29,0.74,3.32
		c0.35,1.07,0.94,1.99,1.78,2.77c0.78,0.84,1.7,1.43,2.77,1.78c1.03,0.54,2.13,0.79,3.32,0.74c0.76-0.1,1.53-0.21,2.29-0.31
		c1.46-0.41,2.72-1.15,3.8-2.21c0.45-0.58,0.9-1.16,1.35-1.74c0.78-1.34,1.17-2.79,1.18-4.34c-0.13-6.25-0.25-12.51-0.38-18.76
		c1.61,1.67,3.84,2.67,6.21,2.67c1.55,0,3-0.4,4.34-1.18c1.29-0.77,2.32-1.79,3.09-3.09c0.72-1.54,1.45-3.07,2.2-4.6
		c-0.08,6.13-0.12,12.27-0.09,18.41c0.03,4.82,0.09,9.63,0.21,14.45c-0.04,1.19,0.2,2.29,0.74,3.32c0.35,1.07,0.94,1.99,1.78,2.77
		c0.78,0.84,1.7,1.43,2.77,1.78c1.03,0.54,2.13,0.79,3.32,0.74c0.76-0.1,1.53-0.2,2.29-0.31c1.46-0.41,2.72-1.15,3.8-2.21
		c0.45-0.58,0.9-1.16,1.35-1.74c0.78-1.34,1.17-2.79,1.18-4.34c-0.21-8.58-0.26-17.17-0.2-25.75c0.06-8.54,0.23-17.08,0.46-25.62
		c0.13-4.82,0.29-9.63,0.45-14.45c-0.1-0.76-0.2-1.53-0.31-2.29c-0.27-1.12-0.78-2.1-1.54-2.93c-0.38-0.65-0.9-1.16-1.54-1.54
		c-0.83-0.76-1.81-1.27-2.93-1.54c-0.76-0.1-1.53-0.2-2.29-0.31c-0.76,0.1-1.53,0.2-2.29,0.31c-1.12,0.27-2.1,0.78-2.93,1.54
		c-0.94,0.61-1.68,1.41-2.22,2.42c-2.85,4.09-5.55,8.28-8.12,12.55c-1.43,2.38-2.81,4.78-4.14,7.21c-1.35-2.25-2.69-4.51-4.04-6.76
		c-1.13-1.88-2.25-3.76-3.38-5.65c-0.45-0.58-0.9-1.16-1.35-1.74c-0.78-0.84-1.7-1.43-2.77-1.78c-0.67-0.39-1.4-0.59-2.17-0.59
		c-1.14-0.26-2.29-0.2-3.43,0.15c-0.69,0.29-1.37,0.58-2.06,0.87c-0.58,0.45-1.16,0.9-1.74,1.35c-0.84,0.78-1.43,1.7-1.78,2.77
		c-0.54,1.03-0.79,2.13-0.74,3.32C200.97,428.65,201.1,435.21,201.24,441.78z"/>
	<path class="st0" d="M257.83,477.82c0.41,0.98,0.81,1.93,1.4,2.81c0.77,1.14,1.62,2.26,2.57,3.26c0.96,1,2.11,1.82,3.21,2.64
		c0.55,0.41,1.14,0.79,1.75,1.12c1.25,0.67,2.58,1.21,3.91,1.7c0.67,0.24,1.36,0.44,2.05,0.58c2.25,0.46,4.62,0.75,6.93,0.55
		c2.39-0.2,4.81-0.56,7.1-1.32c1.48-0.49,2.91-1.12,4.33-1.76c0.72-0.32,1.42-0.67,2.11-1.06c0.65-0.37,1.27-0.76,1.87-1.2
		c1.15-0.84,2.33-1.7,3.35-2.7c0.26-0.26,0.51-0.52,0.75-0.8c0.7-0.82,1.37-1.68,1.98-2.57c0.85-1.22,1.39-2.66,1.93-4.02
		c0.29-0.74,0.51-1.51,0.65-2.29c0.2-1.09,0.33-2.2,0.45-3.3c0.05-0.42,0.07-0.84,0.09-1.26c0.07-2.22-0.26-4.48-0.63-6.67
		c-0.24-1.44-0.62-2.85-1.11-4.23c-0.48-1.33-1.05-2.65-1.63-3.94c-0.29-0.65-0.62-1.29-0.96-1.91c-1.05-1.88-2.36-3.57-3.7-5.24
		c-0.9-1.13-1.9-2.18-2.98-3.13c-1.63-1.43-3.38-2.77-5.23-3.9c-2.81-1.72-5.86-2.99-8.65-4.74c-0.33-0.21-0.66-0.43-0.99-0.65
		c-0.76-0.66-1.48-1.37-2.13-2.13c-0.54-0.79-1.03-1.61-1.45-2.47c-0.27-0.76-0.49-1.54-0.65-2.34c-0.04-0.66-0.04-1.32,0-1.98
		c0.14-0.67,0.32-1.33,0.54-1.98c0.29-0.56,0.6-1.11,0.95-1.64c0.34-0.37,0.69-0.73,1.06-1.07c0.32-0.21,0.66-0.41,1-0.59
		c0.39-0.13,0.79-0.23,1.2-0.32c0.47-0.02,0.94-0.02,1.4,0c0.41,0.09,0.82,0.2,1.22,0.33c0.26,0.14,0.51,0.28,0.75,0.44
		c0.19,0.18,0.37,0.36,0.55,0.55c0.3,0.47,0.58,0.96,0.83,1.46c0.92,2.59,1.35,5.33,1.76,8.04c0.27,1.12,0.78,2.1,1.54,2.93
		c0.61,0.94,1.41,1.68,2.42,2.22c0.99,0.63,2.05,0.97,3.2,1.02c1.14,0.26,2.29,0.2,3.43-0.15c0.69-0.29,1.37-0.58,2.06-0.87
		c1.29-0.77,2.32-1.79,3.09-3.09c0.29-0.69,0.58-1.37,0.87-2.06c0.41-1.53,0.41-3.05,0-4.58c-0.41-2.73-0.84-5.49-1.78-8.11
		c-0.47-1.3-1-2.58-1.6-3.82c-0.29-0.6-0.61-1.19-0.98-1.75c-0.75-1.14-1.59-2.24-2.5-3.26c-0.42-0.47-0.88-0.91-1.38-1.31
		c-0.99-0.79-2.01-1.64-3.11-2.29c-1.14-0.67-2.42-1.16-3.63-1.65c-1.83-0.74-3.74-0.96-5.7-1.2c-1.21-0.15-2.43-0.14-3.64,0.02
		c-1.35,0.18-2.71,0.3-4.03,0.66c-1.26,0.35-2.45,0.9-3.64,1.41c-1.81,0.78-3.32,1.98-4.85,3.21c-1.56,1.25-2.74,2.83-3.92,4.42
		c-0.76,1.02-1.38,2.13-1.88,3.29c-0.8,1.86-1.59,3.66-1.93,5.66c-0.23,1.33-0.43,2.68-0.51,4.03c-0.04,0.66-0.04,1.32,0,1.98
		c0.09,1.39,0.29,2.79,0.53,4.16c0.12,0.65,0.27,1.3,0.46,1.93c0.19,0.64,0.42,1.26,0.67,1.87c0.53,1.27,1.03,2.55,1.69,3.76
		c0.97,1.78,2.24,3.41,3.53,4.97c0.85,1.03,1.81,1.98,2.85,2.82c1.7,1.38,3.43,2.66,5.34,3.75c2.63,1.49,5.42,2.7,7.96,4.35
		c0.25,0.16,0.5,0.33,0.75,0.51c1.05,0.89,2.02,1.87,2.91,2.92c0.84,1.2,1.58,2.46,2.21,3.79c0.5,1.36,0.89,2.75,1.15,4.17
		c0.08,0.94,0.1,1.88,0.05,2.82c-0.07,0.31-0.15,0.61-0.24,0.91c-0.07,0.12-0.14,0.24-0.21,0.36c-0.25,0.26-0.5,0.51-0.77,0.75
		c-0.91,0.61-1.88,1.15-2.87,1.62c-1.14,0.42-2.31,0.76-3.5,0.99c-0.74,0.05-1.49,0.06-2.23,0.02c-0.52-0.11-1.04-0.25-1.55-0.42
		c-0.39-0.2-0.77-0.42-1.14-0.66c-0.21-0.19-0.41-0.4-0.61-0.6c-0.09-0.14-0.17-0.28-0.25-0.42c-0.04-0.13-0.07-0.26-0.11-0.4
		c0-0.15,0-0.3,0-0.45c0.02-0.09,0.05-0.18,0.07-0.27c0.05-0.05,0.09-0.09,0.14-0.14c0.84-0.78,1.43-1.7,1.78-2.77
		c0.54-1.03,0.79-2.13,0.74-3.32c0.04-1.19-0.2-2.29-0.74-3.32c-0.35-1.07-0.94-1.99-1.78-2.77c-0.58-0.45-1.16-0.9-1.74-1.35
		c-1.34-0.78-2.79-1.17-4.34-1.18c-0.76,0.1-1.53,0.2-2.29,0.31c-1.46,0.41-2.72,1.15-3.8,2.21c-0.99,0.93-1.83,2.07-2.57,3.19
		c-0.17,0.26-0.33,0.52-0.47,0.8c-0.49,0.95-0.88,1.95-1.27,2.94c-0.23,0.61-0.4,1.24-0.51,1.89c-0.22,1.34-0.47,2.77-0.44,4.16
		c0.02,1.39,0.24,2.8,0.51,4.16C257.03,475.93,257.43,476.86,257.83,477.82z"/>
	<path class="st0" d="M306.96,424.09c1.88,5.46,3.79,10.91,5.65,16.38c0.89,2.64,1.72,5.3,2.19,8.05c0.23,2.35,0.26,4.71,0.29,7.07
		c0.03,2.83,0.05,5.67,0.08,8.5c0.05,5.67,0.11,11.34,0.16,17.01c0.03,3.17,0.06,6.35,0.09,9.52c-0.04,1.19,0.2,2.29,0.74,3.32
		c0.35,1.07,0.94,1.99,1.78,2.77c0.78,0.84,1.7,1.43,2.77,1.78c1.03,0.54,2.13,0.79,3.32,0.74c0.76-0.1,1.53-0.21,2.29-0.31
		c1.46-0.41,2.72-1.15,3.8-2.21c1.54-1.67,2.54-3.76,2.52-6.09c-0.05-5.75-0.11-11.51-0.16-17.26c-0.05-5.75-0.11-11.51-0.16-17.26
		c-0.02-2.06-0.03-4.13-0.17-6.19c0.95-1.7,1.87-3.42,2.74-5.16c1.56-3.11,2.94-6.28,4.28-9.49c1.06-2.53,2.04-5.09,2.93-7.68
		c0.88-2.57,1.65-5.16,2.4-7.77c0.73-2.52,1.46-5.05,2.42-7.5c0.45-0.98,0.94-1.94,1.49-2.86c0.63-0.99,0.97-2.05,1.02-3.2
		c0.26-1.14,0.2-2.29-0.15-3.43c-0.27-1.12-0.78-2.1-1.54-2.93c-0.61-0.94-1.41-1.68-2.42-2.22c-0.69-0.29-1.37-0.58-2.06-0.87
		c-1.53-0.41-3.05-0.41-4.58,0c-0.69,0.29-1.37,0.58-2.06,0.87c-1.29,0.77-2.32,1.79-3.09,3.09c-0.49,0.83-0.94,1.68-1.35,2.55
		c-0.71,1.52-1.36,3.07-1.96,4.64c-0.69,1.8-1.27,3.65-1.81,5.5c-0.55,1.86-1.06,3.73-1.63,5.58c-0.51,1.68-1.06,3.35-1.65,5.01
		c-0.31-0.89-0.62-1.79-0.93-2.68c-1.87-5.43-3.75-10.86-5.62-16.29c-0.23-0.67-0.46-1.34-0.69-2.01c-0.27-1.12-0.78-2.1-1.54-2.93
		c-0.61-0.94-1.41-1.68-2.42-2.22c-0.99-0.63-2.05-0.97-3.2-1.02c-1.14-0.26-2.29-0.2-3.43,0.15c-0.69,0.29-1.37,0.58-2.06,0.87
		c-1.29,0.77-2.32,1.79-3.09,3.09c-0.29,0.69-0.58,1.37-0.87,2.06c-0.41,1.53-0.41,3.05,0,4.58
		C303.17,413.12,305.07,418.6,306.96,424.09z"/>
	<path class="st0" d="M351.41,492.98c0.27,1.12,0.78,2.1,1.54,2.93c0.61,0.94,1.41,1.68,2.42,2.22c0.99,0.63,2.05,0.97,3.2,1.02
		c1.14,0.26,2.29,0.2,3.43-0.15c0.69-0.29,1.37-0.58,2.06-0.87c1.29-0.77,2.32-1.79,3.09-3.09c0.29-0.69,0.58-1.37,0.87-2.06
		c0.41-1.53,0.41-3.05,0-4.58c-0.27-0.66-0.47-1.33-0.62-2.02c-0.15-2.18-0.01-4.38,0.05-6.55c0.08-2.74,0.15-5.49,0.23-8.23
		c0.13-4.56,0.25-9.12,0.38-13.68c2.9,0,5.8,0,8.69,0c0.9,0,1.81,0,2.71,0c0.1,0,0.2,0,0.3,0c0.05,4.48,0.11,8.96,0.19,13.44
		c0.12,6.53,0.27,13.06,0.47,19.59c0.07,2.25,0.91,4.48,2.52,6.09c0.78,0.84,1.7,1.43,2.77,1.78c1.03,0.54,2.13,0.79,3.32,0.74
		c0.76-0.1,1.53-0.2,2.29-0.31c1.46-0.41,2.72-1.15,3.8-2.21c1.52-1.66,2.59-3.78,2.52-6.09c-0.34-11.63-0.57-23.27-0.68-34.91
		c-0.11-11.58-0.11-23.16,0-34.74c0.06-6.53,0.16-13.06,0.3-19.6c0.04-1.19-0.2-2.29-0.74-3.32c-0.35-1.07-0.94-1.99-1.78-2.77
		c-0.78-0.84-1.7-1.43-2.77-1.78c-1.03-0.54-2.13-0.79-3.32-0.74c-0.76,0.1-1.53,0.2-2.29,0.31c-1.46,0.41-2.72,1.15-3.8,2.21
		c-0.45,0.58-0.9,1.16-1.35,1.74c-0.78,1.34-1.17,2.79-1.18,4.34c-0.24,11.64-0.37,23.28-0.38,34.92v0
		c-3.29-0.11-6.59-0.1-9.89,0.03c-0.38,0.01-0.76,0.03-1.13,0.05c0.14-5.01,0.28-10.01,0.42-15.02c0.17-6.25,0.35-12.49,0.52-18.74
		c0.04-1.19-0.2-2.29-0.74-3.32c-0.35-1.07-0.94-1.99-1.78-2.77c-0.78-0.84-1.7-1.43-2.77-1.78c-1.03-0.54-2.13-0.79-3.32-0.74
		c-0.76,0.1-1.53,0.2-2.29,0.31c-1.46,0.41-2.72,1.15-3.8,2.21c-0.45,0.58-0.9,1.16-1.35,1.74c-0.78,1.34-1.17,2.79-1.18,4.34
		c-0.32,11.62-0.64,23.23-0.97,34.85c-0.32,11.56-0.64,23.12-0.96,34.68c-0.09,3.21-0.18,6.42-0.27,9.63
		c-0.04,1.49-0.09,2.98,0.02,4.47C350.36,488.71,350.59,490.97,351.41,492.98z"/>
	<path class="st0" d="M400.61,484.44c0.1,0.76,0.21,1.53,0.31,2.29c0,0.02,0.01,0.04,0.01,0.07c0.02,0.09,0.04,0.17,0.08,0.25
		c0.14,0.34,0.29,0.69,0.43,1.03c0.14,0.35,0.29,0.7,0.44,1.05c0.01,0.02,0.02,0.03,0.02,0.05c0.02,0.04,0.04,0.07,0.06,0.11
		c0.02,0.04,0.05,0.07,0.07,0.1c0.01,0.01,0.01,0.01,0.02,0.02c0.45,0.58,0.9,1.16,1.35,1.74c0.02,0.02,0.03,0.04,0.05,0.06
		c0.05,0.06,0.12,0.12,0.18,0.17c0.29,0.22,0.58,0.45,0.87,0.67c0.3,0.23,0.59,0.46,0.89,0.69c0.01,0.01,0.03,0.02,0.04,0.03
		c0.04,0.02,0.08,0.05,0.12,0.07c1.28,0.66,2.11,0.97,3.22,1.14c0.02,0.01,0.03,0.01,0.05,0.02c0.76,0.1,1.53,0.2,2.29,0.31
		c1.55,0,3-0.4,4.34-1.18c0.31-0.22,0.64-0.5,0.91-0.7c0.09-0.07,0.62-0.46,0.9-0.7c0.03-0.03,0.06-0.05,0.09-0.08
		c0.57-0.56,1.05-1.3,1.49-1.9c0.05-0.07,0.09-0.13,0.13-0.21c0.18-0.36,0.35-0.82,0.48-1.13c0.12-0.27,0.35-0.76,0.48-1.14
		c0.02-0.07,0.04-0.15,0.05-0.22c0.14-0.83,0.31-1.67,0.33-2.52c0-0.08,0-0.15-0.01-0.23c-0.01-0.06-0.17-1.63-0.32-2.39
		c-0.01-0.04-0.02-0.09-0.03-0.13c-0.01-0.03-0.02-0.07-0.03-0.1c0-0.01-0.01-0.02-0.01-0.02c-0.29-0.69-0.58-1.37-0.87-2.06
		c-0.01-0.02-0.02-0.04-0.03-0.06c-0.04-0.08-0.08-0.15-0.13-0.21c-0.22-0.29-0.45-0.58-0.67-0.87c-0.23-0.3-0.46-0.6-0.69-0.89
		c-0.01-0.01-0.02-0.03-0.03-0.04c-0.03-0.03-0.05-0.06-0.08-0.08c-0.59-0.54-1.23-1.06-1.91-1.47c-0.69-0.42-1.55-0.7-2.24-0.96
		c-0.07-0.03-0.14-0.05-0.22-0.06c-0.82-0.16-1.65-0.29-2.49-0.33c-0.08,0-0.15,0-0.23,0.01c-0.4,0.04-0.87,0.12-1.19,0.16
		c-0.13,0.02-0.8,0.09-1.18,0.16c-0.04,0.01-0.07,0.01-0.11,0.02c-0.42,0.1-0.96,0.39-1.24,0.51c-0.25,0.1-0.85,0.31-1.21,0.53
		c-0.68,0.42-1.31,0.94-1.91,1.47c-0.05,0.05-0.1,0.1-0.14,0.15c0.12-0.14-1.14,1.27-1.46,1.93c-0.81,1.68-1.28,2.84-1.27,4.76
		c0,0.04,0,0.07,0.01,0.11C400.61,484.42,400.61,484.43,400.61,484.44z"/>
	<path class="st0" d="M424.19,413.99c0.27,8.84,0.44,17.67,0.5,26.51c0.07,9.94,0.01,19.88-0.18,29.82
		c-0.11,5.61-0.26,11.21-0.45,16.82c-0.04,1.19,0.2,2.29,0.74,3.32c0.35,1.07,0.94,1.99,1.78,2.77c0.78,0.84,1.7,1.43,2.77,1.78
		c1.03,0.54,2.13,0.79,3.32,0.74c0.76-0.1,1.53-0.21,2.29-0.31c1.46-0.41,2.72-1.15,3.8-2.21c0.45-0.58,0.9-1.16,1.35-1.74
		c0.78-1.34,1.17-2.79,1.18-4.34c0.34-9.99,0.55-19.98,0.63-29.97c0-0.26,0-0.52,0-0.78c2.38-0.17,4.76-0.35,7.15-0.52
		c0.04,0.01,0.09,0.01,0.13,0.02c0.61,0.08,1.22,0.12,1.83,0.09c0.16-0.01,0.33-0.02,0.49-0.04c0.82-0.1,1.66-0.21,2.48-0.33
		c0.08-0.01,0.16-0.03,0.24-0.04c0.35-0.06,0.69-0.16,1.02-0.28c1.12-0.27,2.1-0.78,2.93-1.54c0.94-0.61,1.68-1.41,2.22-2.42
		c0.29-0.69,0.58-1.37,0.87-2.06c0.15-0.48,0.24-0.95,0.28-1.43c0.38-0.89,0.56-1.84,0.52-2.85c-0.1-0.76-0.2-1.53-0.31-2.29
		c-0.41-1.46-1.15-2.72-2.21-3.8c-0.58-0.45-1.16-0.9-1.74-1.35c-1.34-0.78-2.79-1.17-4.34-1.18c-3.03-0.09-6.06-0.17-9.09-0.26
		c-0.83-0.02-1.67-0.05-2.5-0.07c-0.03-2.9-0.07-5.8-0.13-8.7c-0.04-2.14-0.09-4.28-0.14-6.42c0.13,0.05,0.26,0.09,0.36,0.12
		c0.39,0.09,1.02,0.14,1.23,0.17c0.04,0.01,0.65,0.12,1.07,0.15c0.18,0.03,0.35,0.07,0.53,0.1c1.81,0.33,3.63,0.57,5.46,0.81
		c2.19,0.29,4.39,0.48,6.6,0.56c1.25,0.04,2.5,0.05,3.74,0.03c1.19,0.04,2.29-0.2,3.32-0.74c1.07-0.35,1.99-0.94,2.77-1.78
		c0.41-0.53,0.82-1.06,1.23-1.59c-0.05,7.12-0.06,14.23-0.03,21.35c0.04,8.28,0.15,16.56,0.32,24.84c0.1,4.67,0.21,9.34,0.35,14.01
		c-0.04,1.19,0.2,2.29,0.74,3.32c0.35,1.07,0.94,1.99,1.78,2.77c0.78,0.84,1.7,1.43,2.77,1.78c1.03,0.54,2.13,0.79,3.32,0.74
		c0.76-0.1,1.53-0.2,2.29-0.31c1.46-0.41,2.72-1.15,3.8-2.21c0.45-0.58,0.9-1.16,1.35-1.74c0.78-1.34,1.17-2.79,1.18-4.34
		c-0.24-8.32-0.42-16.64-0.53-24.96c0-0.2,0-0.4-0.01-0.6c0.27,0.37,0.57,0.73,0.9,1.07c0.78,0.84,1.7,1.43,2.77,1.78
		c1.03,0.54,2.13,0.79,3.32,0.74c1.55,0,3-0.4,4.34-1.18c1.09-0.79,2.23-1.59,3.13-2.61c0.68-0.77,1.29-1.61,1.91-2.43
		c0.03-0.04,0.06-0.08,0.09-0.12c-0.07,4.08-0.15,8.17-0.22,12.25c-0.07,3.78-0.14,7.56-0.21,11.34c-0.04,1.19,0.2,2.29,0.74,3.32
		c0.35,1.07,0.94,1.99,1.78,2.77c0.78,0.84,1.7,1.43,2.77,1.78c1.03,0.54,2.13,0.79,3.32,0.74c0.76-0.1,1.53-0.2,2.29-0.31
		c1.46-0.41,2.72-1.15,3.8-2.21c0.45-0.58,0.9-1.16,1.35-1.74c0.78-1.34,1.17-2.79,1.18-4.34c0.12-6.71,0.25-13.42,0.37-20.14
		c0.12-6.71,0.25-13.42,0.37-20.14c0.07-3.78,0.14-7.56,0.21-11.34c-0.1-0.76-0.21-1.53-0.31-2.29c-0.29-0.69-0.58-1.37-0.87-2.06
		c-0.45-0.58-0.9-1.16-1.35-1.74c-0.78-0.84-1.7-1.43-2.77-1.78c-0.67-0.39-1.4-0.59-2.17-0.59c-0.76-0.2-1.53-0.2-2.29,0
		c-0.78,0-1.5,0.2-2.17,0.59c-1.07,0.35-1.99,0.94-2.77,1.78c-3.39,3.15-6.33,6.67-9.09,10.38c-0.74,1-1.45,2.02-2.14,3.06
		c-1.86-4.02-3.78-8.01-5.78-11.97c-1.22-2.41-2.46-4.81-3.73-7.2c-0.45-0.58-0.9-1.16-1.35-1.74c-0.78-0.84-1.7-1.43-2.77-1.78
		c-0.67-0.39-1.4-0.59-2.17-0.59c-1.14-0.26-2.29-0.2-3.43,0.15c-0.69,0.29-1.37,0.58-2.06,0.87c-0.58,0.45-1.16,0.9-1.74,1.35
		c-0.71,0.66-1.25,1.43-1.6,2.3c-0.03-0.19-0.07-0.37-0.12-0.55c-0.05-0.19-0.11-0.37-0.18-0.55c-0.2-0.5-0.6-1.56-0.97-2.27
		c-0.05-0.1-0.11-0.19-0.17-0.28c-0.46-0.67-0.96-1.31-1.49-1.93c-0.06-0.07-0.12-0.14-0.19-0.2c-0.6-0.55-1.26-1.03-1.92-1.49
		c-0.1-0.07-0.2-0.13-0.31-0.18c-0.75-0.37-1.53-0.72-2.33-0.97c-0.11-0.04-0.23-0.06-0.35-0.09c-0.99-0.19-2-0.3-3.01-0.4
		c-2.26-0.22-4.52-0.44-6.78-0.66c-4.54-0.44-9.08-0.88-13.63-1.32c-1.28-0.12-2.56-0.25-3.83-0.37c-0.25-0.02-0.5-0.05-0.76-0.06
		c-0.96-0.02-1.99,0.19-2.89,0.35c-0.1,0.02-0.2,0.04-0.3,0.08c-0.78,0.28-1.58,0.55-2.29,0.98c-1.43,0.87-2.59,2-3.44,3.45
		c-0.63,0.99-0.97,2.05-1.02,3.2c-0.26,1.14-0.2,2.29,0.15,3.43C423.25,412.44,423.64,413.26,424.19,413.99z"/>
</g>
<g>
	<g>
		<path class="st0" d="M588.68,450.63c30.89,1.01,61.83,2.01,92.54,5.73c27.84,3.37,55.58,9.11,81.75,19.36
			c23.7,9.28,46.22,22.54,63.6,41.35c17.37,18.79,28.93,42.21,35.7,66.76c8,29.02,9.49,59.28,10.3,89.21
			c0.1,3.69,0.19,7.39,0.28,11.08c0.09,3.85,6.09,3.87,6,0c-0.75-30.99-1.54-62.28-8.47-92.63c-5.85-25.62-16.43-50.24-32.88-70.87
			c-16.44-20.61-38.55-35.68-62.49-46.32c-25.86-11.5-53.53-18.24-81.47-22.3c-30.83-4.48-61.99-5.91-93.1-6.98
			c-3.92-0.13-7.84-0.26-11.76-0.39C584.82,444.51,584.82,450.51,588.68,450.63L588.68,450.63z"/>
	</g>
</g>
</svg>
