<?xml version="1.0" encoding="utf-8"?>
<!-- Generator: Adobe Illustrator 27.4.1, SVG Export Plug-In . SVG Version: 6.00 Build 0)  -->
<svg version="1.1" id="Layer_1" xmlns="http://www.w3.org/2000/svg" xmlns:xlink="http://www.w3.org/1999/xlink" x="0px" y="0px"
	 viewBox="0 0 1080 1080" style="enable-background:new 0 0 1080 1080;" xml:space="preserve">
<style type="text/css">
	.st0{fill:#FF6600;}
</style>
<g>
	<g>
		<g>
			<path class="st0" d="M573.64,562.53c0.43,0.42,0.99,0.64,1.62,0.64h6.08c0.66,0,1.25-0.26,1.66-0.72
				c0.37-0.42,0.56-0.96,0.56-1.56v-14.48l1.54,2.56c0.42,0.84,1.23,1.32,2.23,1.32h2.85c0.96,0,1.78-0.48,2.21-1.27l1.52-2.58
				v14.47c0.01,1.36,0.92,2.27,2.24,2.27h6.08c0.64,0,1.21-0.23,1.64-0.67c0.41-0.43,0.63-0.98,0.64-1.61l-0.03-32.04
				c0-0.61-0.2-1.16-0.6-1.59c-0.41-0.45-1-0.7-1.65-0.7h-6.03c-0.96,0-1.78,0.48-2.2,1.26l-5.28,8.76l-5.2-8.7
				c-0.45-0.84-1.27-1.32-2.23-1.32h-6.03c-0.64,0-1.21,0.23-1.63,0.67c-0.42,0.43-0.64,0.99-0.64,1.61l-0.02,32.04
				C572.96,561.53,573.19,562.1,573.64,562.53L573.64,562.53z"/>
			<path class="st0" d="M608.49,563.17h6.61c1.17,0,2.04-0.69,2.3-1.79l0.89-3.18h8.98l0.89,3.16c0.24,1.12,1.11,1.81,2.28,1.81
				h6.61c0.87,0,1.39-0.37,1.66-0.68c0.27-0.31,0.57-0.85,0.47-1.68l-0.04-0.32l-9.92-32.23c-0.34-1.07-1.22-1.71-2.35-1.71h-8.25
				c-1.16,0-2.03,0.66-2.32,1.72l-9.86,32.09l-0.12,0.8l0.02,0.18C606.48,562.46,607.32,563.17,608.49,563.17z M622.78,542l1.99,7.2
				h-3.98L622.78,542z"/>
			<path class="st0" d="M641.66,562.53c0.43,0.42,0.99,0.64,1.62,0.64h6.08c0.66,0,1.25-0.26,1.66-0.72
				c0.37-0.42,0.56-0.96,0.56-1.56l0.01-8.37l1.19-1.67l6.3,11.08c0.5,0.8,1.28,1.25,2.19,1.25h6.9c0.76,0,1.25-0.33,1.53-0.61
				c0.44-0.44,0.64-1.03,0.56-1.65l-0.22-0.71l-10.1-17.32l9.46-13.01l0.05-0.08c0.22-0.35,0.5-0.88,0.42-1.5
				c-0.1-0.8-0.72-1.73-2.14-1.73h-6.95c-0.88,0-1.65,0.4-2.14,1.11l-7.06,9.66l0.01-8.49c0-0.61-0.21-1.16-0.6-1.58
				c-0.41-0.45-1-0.7-1.65-0.7h-6.08c-0.64,0-1.21,0.23-1.63,0.67c-0.42,0.43-0.64,0.99-0.64,1.61l-0.02,32.04
				C640.98,561.53,641.21,562.1,641.66,562.53L641.66,562.53z"/>
			<path class="st0" d="M674.05,563.17h21.57c0.66,0,1.25-0.26,1.66-0.73c0.37-0.42,0.56-0.95,0.56-1.56l0-5.11
				c0-0.61-0.21-1.16-0.6-1.59c-0.41-0.45-1-0.69-1.65-0.69h-13.25l0.01-4.02h7.96c1.3,0,2.21-0.89,2.27-2.28l0.01-5.07
				c0-0.64-0.23-1.21-0.67-1.64c-0.43-0.42-0.99-0.65-1.62-0.65h-7.94l0.01-3.59h13.22c0.64,0,1.21-0.23,1.63-0.67
				c0.41-0.42,0.63-0.98,0.64-1.61l0-5.11c0-0.61-0.2-1.16-0.6-1.59c-0.41-0.45-1-0.7-1.65-0.7h-21.57c-0.64,0-1.21,0.23-1.63,0.67
				c-0.42,0.43-0.64,0.99-0.64,1.61l-0.02,32.04c0,0.64,0.23,1.21,0.67,1.64C672.86,562.95,673.42,563.17,674.05,563.17z"/>
		</g>
		<g>
			<path class="st0" d="M715.51,560.82L715.51,560.82c2.47,1.82,5.64,2.74,9.44,2.74c2.64,0,5-0.46,7.04-1.38
				c2.09-0.94,3.75-2.3,4.93-4.04c1.19-1.76,1.8-3.82,1.81-6.14c-0.01-0.64-0.03-1.08-0.06-1.36c-0.26-2.1-1.05-3.86-2.34-5.24
				c-1.21-1.29-2.51-2.25-3.85-2.85c-1.21-0.55-2.86-1.17-4.89-1.85c-1.79-0.63-3.12-1.13-3.97-1.49c-0.91-0.38-1.39-0.72-1.63-0.93
				c-0.27-0.24-0.33-0.45-0.35-0.61c-0.09-0.74,0.13-1.04,0.37-1.23c0.43-0.37,1.14-0.55,2.11-0.55c1.19,0,2.11,0.27,2.8,0.82
				c0.63,0.51,0.98,1.06,1.08,1.69l0.01,0.76c-0.03,0.64,0.29,1.22,0.88,1.58c0.38,0.24,0.84,0.36,1.37,0.36l5.98,0
				c0.66,0,1.25-0.26,1.66-0.73c0.37-0.42,0.56-0.95,0.56-1.55l0-0.43c-0.02-0.7-0.04-1.2-0.09-1.54c-0.26-2.12-1.05-4.02-2.35-5.66
				c-1.28-1.61-2.96-2.86-4.99-3.73c-1.98-0.84-4.21-1.27-6.61-1.27c-2.47,0-4.73,0.45-6.7,1.33c-2.04,0.91-3.65,2.24-4.81,3.95
				c-1.16,1.72-1.75,3.75-1.77,6.04c0.01,0.63,0.03,1.09,0.07,1.41c0.25,2.05,1.02,3.82,2.29,5.25c1.2,1.35,2.61,2.44,4.19,3.22
				c1.47,0.73,3.18,1.44,5.02,2.08c0.18,0.07,0.37,0.14,0.57,0.21c0.17,0.06,0.34,0.12,0.54,0.2c2.23,0.76,3.24,1.23,3.7,1.49
				c0.41,0.23,0.52,0.48,0.55,0.77c0.03,0.28,0.02,0.67-0.44,1.16c-0.35,0.38-1.09,0.58-2.14,0.58c-1.29,0-2.29-0.29-3.06-0.9
				c-0.88-0.7-0.98-1.27-0.98-1.58l0.02-0.54c0.05-0.66-0.25-1.27-0.81-1.67c-0.4-0.29-0.89-0.43-1.44-0.43h-5.94
				c-0.64,0-1.21,0.23-1.63,0.67c-0.42,0.43-0.64,0.99-0.64,1.57l-0.02,0.7c0.01,0.69,0.04,1.19,0.09,1.54
				C711.48,556.4,712.97,558.95,715.51,560.82z"/>
			<path class="st0" d="M745.17,560.49c2.48,2.04,5.64,3.07,9.36,3.07c2.7,0,5.11-0.55,7.18-1.63c2.11-1.1,3.77-2.69,4.93-4.72
				c1.15-2.01,1.74-4.34,1.74-6.93l0.02-21.43c0-0.61-0.21-1.16-0.6-1.58c-0.41-0.45-1-0.7-1.65-0.7h-6.08
				c-0.64,0-1.21,0.23-1.63,0.67c-0.42,0.43-0.64,0.99-0.64,1.61l-0.02,21.45c0.02,1.14-0.27,2-0.88,2.65
				c-0.6,0.64-1.35,0.93-2.35,0.93c-0.93,0-1.67-0.26-2.26-0.79c-0.6-0.54-0.94-1.27-1.06-2.22c-0.05-0.36-0.04-0.49-0.04-0.49
				l0.03-21.54c0-0.61-0.2-1.16-0.6-1.59c-0.42-0.45-1-0.69-1.65-0.69h-6.08c-0.64,0-1.21,0.23-1.63,0.67
				c-0.42,0.43-0.64,0.99-0.64,1.62l-0.02,21.48c0.03,0.79,0.07,1.42,0.13,1.85C741.16,555.63,742.65,558.42,745.17,560.49z"/>
			<path class="st0" d="M772.92,563.17H779c0.66,0,1.25-0.26,1.66-0.72c0.37-0.42,0.56-0.96,0.56-1.56l0.04-11.18h1.12l5.18,11.92
				c0.4,0.98,1.24,1.54,2.3,1.54h6.42c0.8,0,1.3-0.33,1.58-0.6c0.44-0.44,0.64-1.05,0.56-1.7c-0.03-0.29-0.11-0.55-0.23-0.77
				l-5.54-11.82c1.6-0.82,2.91-2,3.89-3.5c1.18-1.8,1.77-3.93,1.77-6.37c-0.02-0.76-0.06-1.31-0.1-1.67
				c-0.38-3.08-1.63-5.57-3.73-7.41c-2.09-1.83-4.76-2.76-7.93-2.76l-13.61,0c-0.64,0-1.21,0.23-1.63,0.67
				c-0.42,0.43-0.64,0.99-0.64,1.61l-0.02,32.04c0,0.64,0.23,1.21,0.67,1.64C771.73,562.95,772.29,563.17,772.92,563.17z
				 M781.25,540.75l0-4.51h4c0.74,0,1.31,0.17,1.75,0.53c0.41,0.33,0.64,0.77,0.71,1.36c0.13,1.1-0.21,1.61-0.48,1.9
				c-0.46,0.49-1.07,0.71-1.94,0.71H781.25z"/>
			<path class="st0" d="M802.62,563.17h21.57c0.66,0,1.25-0.25,1.66-0.72c0.36-0.42,0.56-0.96,0.56-1.56l0-5.11
				c0-0.61-0.21-1.16-0.6-1.59c-0.41-0.45-1-0.7-1.65-0.7h-13.25l0.01-4.02h7.96c1.3,0,2.21-0.89,2.27-2.28l0.01-5.07
				c0-0.64-0.23-1.21-0.67-1.64c-0.43-0.42-0.99-0.65-1.62-0.65h-7.94l0.01-3.59h13.22c0.64,0,1.21-0.23,1.63-0.67
				c0.42-0.42,0.64-0.98,0.64-1.62l0-5.11c0-0.61-0.2-1.16-0.6-1.59c-0.41-0.45-1-0.7-1.65-0.7h-21.57c-0.64,0-1.21,0.23-1.63,0.67
				c-0.42,0.43-0.64,0.99-0.64,1.61l-0.02,32.04c0,0.64,0.23,1.21,0.67,1.64C801.43,562.95,801.99,563.17,802.62,563.17z"/>
		</g>
	</g>
	<g>
		<g>
			<path class="st0" d="M584.42,609.51c0,0.72,0.24,1.36,0.7,1.86c0.34,0.37,0.95,0.81,1.92,0.81h7.21c0.75,0,1.41-0.27,1.91-0.78
				c0.49-0.5,0.74-1.15,0.74-1.89l-0.01-13.03l0.04-0.17l11.35-24.1l0.05-0.12c0.18-0.49,0.25-0.93,0.2-1.35
				c-0.15-1.25-1.13-2.06-2.5-2.06h-7.95c-1.25,0-2.25,0.7-2.67,1.8l-4.71,11.22l-4.62-11.2c-0.47-1.15-1.46-1.82-2.7-1.82h-7.9
				c-0.93,0-1.52,0.38-1.84,0.71c-0.51,0.51-0.74,1.21-0.65,1.98c0.04,0.34,0.13,0.63,0.26,0.89l11.17,24.15L584.42,609.51z"/>
			<path class="st0" d="M637.82,574.89c-1.48-2.12-3.46-3.79-5.87-4.94c-2.37-1.14-5.1-1.72-8.1-1.72c-3.26,0-6.19,0.7-8.71,2.07
				c-2.55,1.39-4.56,3.36-5.98,5.87c-1.42,2.49-2.13,5.37-2.11,8.55l-0.03,11.5c-0.01,0.62,0.04,1.43,0.17,2.48
				c0.53,4.32,2.33,7.81,5.34,10.38c2.99,2.55,6.81,3.85,11.34,3.85c3.29,0,6.25-0.7,8.79-2.07c2.57-1.39,4.59-3.38,6.02-5.91
				c1.41-2.51,2.12-5.44,2.09-8.7l-0.03-11.48c0.02-0.59-0.04-1.41-0.17-2.5C640.22,579.49,639.29,577.01,637.82,574.89z
				 M628.25,584.61l-0.03,11.94c0.01,1.55-0.39,2.75-1.21,3.65h0c-0.78,0.86-1.82,1.28-3.16,1.28c-1.16,0-2.09-0.33-2.82-1.01
				c-0.75-0.7-1.2-1.67-1.36-2.98c-0.07-0.56-0.07-0.82-0.07-0.96l-0.02-11.94c-0.01-1.55,0.39-2.75,1.21-3.66
				c0.79-0.87,1.78-1.28,3.1-1.28c1.2,0,2.15,0.35,2.9,1.06c0.79,0.74,1.25,1.74,1.41,3.05
				C628.25,584.29,628.25,584.5,628.25,584.61z"/>
			<path class="st0" d="M643.44,597.01c0.04,0.95,0.09,1.69,0.15,2.21c0.5,4.1,2.28,7.42,5.27,9.88l0,0
				c2.96,2.42,6.71,3.65,11.15,3.65c3.21,0,6.09-0.65,8.55-1.94c2.51-1.31,4.48-3.2,5.87-5.62c1.37-2.39,2.07-5.17,2.07-8.24
				l0.03-25.59c0-0.72-0.24-1.35-0.7-1.86c-0.49-0.53-1.15-0.81-1.92-0.81h-7.26c-0.75,0-1.41,0.27-1.9,0.78
				c-0.49,0.5-0.75,1.15-0.75,1.89l-0.03,25.62c0.02,1.38-0.33,2.43-1.07,3.21c-0.72,0.76-1.66,1.14-2.86,1.14
				c-1.13,0-2.03-0.31-2.74-0.96c-0.72-0.66-1.14-1.53-1.29-2.69c-0.06-0.45-0.05-0.59-0.05-0.6l0.03-25.72
				c0-0.72-0.24-1.36-0.7-1.85c-0.48-0.52-1.17-0.81-1.92-0.81h-7.26c-0.75,0-1.41,0.27-1.91,0.78c-0.49,0.5-0.74,1.15-0.74,1.88
				L643.44,597.01z"/>
		</g>
		<g>
			<path class="st0" d="M701.54,569.5c-0.48-0.52-1.17-0.81-1.92-0.81h-7.26c-0.75,0-1.41,0.27-1.9,0.78
				c-0.49,0.5-0.75,1.15-0.75,1.89l-0.03,38.27c0,0.75,0.27,1.42,0.78,1.92c0.5,0.49,1.16,0.76,1.9,0.76h7.26
				c0.78,0,1.46-0.3,1.94-0.85c0.43-0.49,0.65-1.12,0.65-1.82l0.02-13.65h7.76l-0.02,13.64c0,0.75,0.27,1.42,0.78,1.92
				c0.5,0.49,1.16,0.76,1.9,0.76h7.26c0.78,0,1.47-0.3,1.94-0.84c0.43-0.49,0.65-1.11,0.66-1.82l0.03-38.28
				c0-0.72-0.24-1.35-0.7-1.86c-0.49-0.53-1.15-0.81-1.92-0.81h-7.26c-0.75,0-1.41,0.27-1.91,0.78c-0.49,0.5-0.74,1.15-0.74,1.88
				l-0.02,13.19h-7.76l0.02-13.19C702.24,570.64,702,570,701.54,569.5z"/>
			<path class="st0" d="M724.6,609.97l0.03,0.2c0.16,1.29,1.14,2.12,2.51,2.12h7.9c1.36,0,2.38-0.8,2.68-2.09l1.07-3.84h10.83
				l1.08,3.83c0.28,1.3,1.29,2.11,2.67,2.11h7.9c1.02,0,1.62-0.43,1.94-0.79c0.31-0.35,0.66-0.98,0.54-1.95l-0.05-0.37l-11.85-38.49
				c-0.4-1.25-1.43-1.99-2.75-1.99h-9.86c-1.35,0-2.37,0.77-2.72,2.01l-11.78,38.33L724.6,609.97z M744.19,586.83l2.46,8.9h-4.92
				L744.19,586.83z"/>
			<path class="st0" d="M756.75,569.49c-0.31,0.36-0.66,0.98-0.54,1.96l0.04,0.36l11.18,38.39c0.28,1.3,1.3,2.1,2.66,2.1h7.84
				c1.39,0,2.43-0.8,2.74-2.08l11.25-38.28l0.03-0.12c0.09-0.42,0.11-0.75,0.07-1.05c-0.15-1.25-1.13-2.06-2.5-2.06h-7.72
				c-1.31,0-2.34,0.82-2.68,2.16l-4.89,20.01l-4.97-19.98c-0.28-1.36-1.3-2.19-2.68-2.19h-7.9
				C757.66,568.69,757.07,569.12,756.75,569.49z"/>
			<path class="st0" d="M822.71,580.13c0.75,0,1.41-0.27,1.91-0.78l0,0c0.48-0.5,0.74-1.15,0.74-1.88l0-6.11
				c0-0.72-0.24-1.36-0.7-1.85c-0.48-0.52-1.17-0.81-1.92-0.81l-25.77,0c-0.75,0-1.41,0.27-1.9,0.78c-0.49,0.5-0.75,1.15-0.75,1.89
				l-0.03,38.27c0,0.75,0.27,1.41,0.78,1.91c0.5,0.49,1.16,0.76,1.9,0.76h25.77c0.77,0,1.46-0.3,1.94-0.84
				c0.43-0.49,0.65-1.11,0.66-1.82l0-6.11c0-0.72-0.24-1.35-0.7-1.85c-0.34-0.37-0.95-0.81-1.92-0.81l-15.89,0l0.01-4.93h9.57
				c1.52,0,2.58-1.04,2.65-2.66l0.01-6.05c0-0.75-0.27-1.41-0.79-1.92c-0.5-0.49-1.16-0.75-1.89-0.75h-9.55l0.02-4.41H822.71z"/>
		</g>
	</g>
	<g>
		<path class="st0" d="M648.74,620.02c-1.44-1.56-3.47-2.41-5.69-2.41h-62.18c-2.18,0-4.18,0.82-5.64,2.32
			c-1.44,1.48-2.2,3.4-2.21,5.55l-0.07,92.55c-0.01,2.18,0.82,4.19,2.32,5.66c1.49,1.46,3.42,2.23,5.58,2.23h17.57
			c2.29,0,4.33-0.9,5.76-2.53c1.27-1.44,1.94-3.29,1.94-5.35l0.02-31.72h21.7c4.49,0,7.64-3.07,7.84-7.64l0.02-14.87
			c0-2.18-0.82-4.18-2.32-5.65c-1.49-1.46-3.42-2.23-5.58-2.23h-21.65l0.03-7.81h36.77c2.18,0,4.18-0.82,5.64-2.31
			c1.44-1.48,2.2-3.39,2.21-5.56l0-14.78C650.82,623.39,650.11,621.51,648.74,620.02z"/>
		<path class="st0" d="M729.17,617.6H711.6c-2.18,0-4.18,0.82-5.63,2.31c-1.44,1.48-2.21,3.4-2.21,5.55l-0.07,61.9l0,0.09
			c0.05,2.94-0.67,5.14-2.19,6.75c-1.49,1.57-3.35,2.3-5.86,2.3c-2.39,0-4.19-0.62-5.66-1.95c-1.49-1.35-2.35-3.18-2.65-5.6
			c-0.1-0.83-0.11-1.16-0.11-1.16c0,0,0,0,0,0l0.02-0.2l0.07-62.1c0-2.09-0.7-3.97-2.07-5.47c-1.44-1.56-3.47-2.41-5.69-2.41h-17.57
			c-2.18,0-4.18,0.82-5.64,2.32c-1.44,1.48-2.2,3.4-2.21,5.55l-0.07,61.9l0,0.22c0.09,2.39,0.22,4.18,0.37,5.46
			c1.26,10.3,5.72,18.65,13.25,24.82c7.41,6.08,16.79,9.16,27.87,9.16c8,0,15.18-1.64,21.34-4.86c6.31-3.3,11.28-8.06,14.77-14.14
			c3.44-6,5.19-12.95,5.19-20.65l0.07-61.9c0-2.09-0.7-3.97-2.07-5.47C733.42,618.46,731.39,617.6,729.17,617.6z"/>
		<path class="st0" d="M825.91,625.49c0-2.1-0.71-3.98-2.07-5.47c-1.44-1.56-3.47-2.41-5.69-2.41h-17.29
			c-4.49,0-7.64,3.07-7.84,7.64l-0.01,0.13l0.14,32.91l-20.75-36.3l-0.1-0.17c-1.66-2.67-4.36-4.2-7.41-4.2H748.3
			c-2.18,0-4.18,0.82-5.64,2.32c-1.44,1.48-2.21,3.4-2.21,5.55l-0.07,92.56c0,2.18,0.82,4.19,2.32,5.66
			c1.49,1.46,3.42,2.23,5.58,2.23h17.29c2.29,0,4.33-0.9,5.76-2.52c1.27-1.44,1.94-3.29,1.95-5.37l-0.12-33.37l20.86,36.87
			l0.11,0.19c1.66,2.67,4.36,4.2,7.41,4.2h16.59c4.49,0,7.64-3.07,7.84-7.64l0.01-0.12L825.91,625.49z"/>
	</g>
	<g>
		<g>
			<path class="st0" d="M833.9,617.6h-4.42c-0.17,0-0.27,0.07-0.32,0.14c-0.05,0.05-0.11,0.15-0.11,0.3l0,0.52
				c0,0.16,0.06,0.26,0.12,0.32c0.06,0.06,0.16,0.12,0.31,0.12h1.42l-0.01,5.54c0,0.12,0.04,0.24,0.12,0.32
				c0.06,0.06,0.16,0.12,0.31,0.12h0.62c0.25,0,0.42-0.17,0.44-0.44l0-5.55h1.51c0.12,0,0.23-0.04,0.3-0.12
				c0.06-0.06,0.12-0.15,0.13-0.31l0-0.52c0-0.13-0.04-0.24-0.12-0.32C834.16,617.67,834.06,617.6,833.9,617.6z"/>
		</g>
		<g>
			<path class="st0" d="M840.59,618.05c0-0.13-0.04-0.24-0.12-0.32c-0.06-0.06-0.16-0.13-0.32-0.13h-0.63
				c-0.19,0-0.35,0.1-0.41,0.24l-1.37,2.24l-1.35-2.23c-0.09-0.16-0.24-0.25-0.43-0.25h-0.63c-0.15,0-0.25,0.07-0.31,0.12
				c-0.06,0.06-0.12,0.15-0.13,0.32l0,6.5c0,0.13,0.04,0.24,0.12,0.32c0.06,0.06,0.16,0.13,0.31,0.13h0.62
				c0.12,0,0.22-0.04,0.31-0.13c0.08-0.08,0.12-0.19,0.13-0.31l-0.01-3.99l0.78,1.33c0.09,0.16,0.24,0.25,0.43,0.25h0.3
				c0.18,0,0.34-0.09,0.42-0.24l0.8-1.34l0,3.99c0,0.16,0.07,0.26,0.12,0.31c0.08,0.08,0.19,0.13,0.31,0.13h0.62
				c0.16,0,0.26-0.07,0.31-0.12c0.08-0.08,0.13-0.19,0.13-0.32L840.59,618.05z"/>
		</g>
	</g>
</g>
<g>
	<g>
		<path class="st0" d="M488.99,620.36c-30.06-1.24-60.27-2.45-89.95-7.74c-25.97-4.62-51.49-12.42-74.51-25.48
			c-22.03-12.49-41.09-29.7-54.14-51.53c-13.62-22.79-20.81-49.06-23.66-75.32c-3.34-30.82-1.12-61.89,1.68-92.65
			c0.35-3.87,0.71-7.75,1.08-11.62c0.15-1.62-1.49-3-3-3c-1.75,0-2.85,1.38-3,3c-2.94,31.45-5.9,63.1-3.62,94.69
			c1.99,27.57,8.09,55.15,20.84,79.83c6.1,11.81,13.78,22.79,22.9,32.47c8.84,9.37,18.98,17.52,29.83,24.45
			c22.18,14.18,47.33,23.27,72.98,28.78c30,6.44,60.74,8.31,91.31,9.64c3.75,0.16,7.51,0.32,11.26,0.47
			C492.85,626.52,492.84,620.52,488.99,620.36L488.99,620.36z"/>
	</g>
</g>
</svg>
