<?xml version="1.0" encoding="utf-8"?>
<!-- Generator: Adobe Illustrator 28.1.0, SVG Export Plug-In . SVG Version: 6.00 Build 0)  -->
<svg version="1.1" id="Layer_1" xmlns="http://www.w3.org/2000/svg" xmlns:xlink="http://www.w3.org/1999/xlink" x="0px" y="0px"
	 viewBox="0 0 20 20" style="enable-background:new 0 0 20 20;" xml:space="preserve">
<style type="text/css">
	.st0{fill:#FF6600;}
</style>
<g>
	<g>
		<path class="st0" d="M2.25-6.4C7.49-7.37,12.85-7.55,18.15-7c0.81,0.08,1.5-0.75,1.5-1.5c0-0.88-0.69-1.42-1.5-1.5
			c-5.57-0.57-11.18-0.3-16.69,0.71c-0.8,0.15-1.25,1.11-1.05,1.85C0.64-6.61,1.45-6.25,2.25-6.4L2.25-6.4z"/>
	</g>
</g>
<g>
	<g>
		<path class="st0" d="M19.32-9.57c-1.01-2.17-2.3-4.17-3.81-6.02c-0.5-0.61-1.61-0.56-2.12,0c-0.26,0.29-0.46,0.66-0.44,1.06
			c0.02,0.42,0.17,0.74,0.44,1.06c0.09,0.11,0.17,0.21,0.26,0.32c0.04,0.05,0.08,0.11,0.13,0.16c-0.06-0.06-0.16-0.21-0.05-0.06
			c0.16,0.22,0.33,0.44,0.48,0.66c0.33,0.46,0.64,0.93,0.94,1.4c0.59,0.95,1.12,1.93,1.58,2.94c0.33,0.71,1.42,0.95,2.05,0.54
			C19.52-7.99,19.67-8.81,19.32-9.57L19.32-9.57z"/>
	</g>
</g>
<g>
	<g>
		<path class="st0" d="M16.73-9.17c-0.16,0.24-0.32,0.47-0.49,0.7c-0.15,0.21,0.17-0.21,0.05-0.07c-0.05,0.05-0.09,0.11-0.13,0.17
			c-0.09,0.11-0.18,0.22-0.28,0.32c-0.37,0.42-0.78,0.81-1.21,1.18c-0.1,0.08-0.48,0.35-0.09,0.08c-0.11,0.08-0.22,0.17-0.34,0.25
			c-0.22,0.15-0.44,0.3-0.67,0.43c-0.24,0.14-0.48,0.28-0.73,0.4c-0.12,0.06-0.25,0.12-0.38,0.18c-0.22,0.1,0,0.01,0.09-0.04
			c-0.08,0.03-0.15,0.06-0.23,0.09c-0.38,0.15-0.69,0.33-0.9,0.69c-0.19,0.32-0.27,0.8-0.15,1.16c0.23,0.71,1.06,1.36,1.85,1.05
			c2.56-1.01,4.7-2.76,6.2-5.07c0.43-0.66,0.16-1.69-0.54-2.05C18.03-10.1,17.18-9.87,16.73-9.17L16.73-9.17z"/>
	</g>
</g>
<g>
	<g>
		<path class="st0" d="M6.06,4.41c-1,0.77-1.99,1.54-2.99,2.32C2.58,7.11,2.1,7.48,1.61,7.86C1.16,8.21,0.72,8.6,0.47,9.13
			c-0.35,0.75-0.35,1.57,0.06,2.3c0.29,0.52,0.76,0.95,1.17,1.38c0.89,0.92,1.77,1.85,2.66,2.77c0.54,0.57,1.58,0.59,2.12,0
			c0.56-0.61,0.58-1.52,0-2.12c-0.75-0.78-1.49-1.55-2.24-2.33c-0.34-0.35-0.67-0.77-1.04-1.09c-0.07-0.08-0.06-0.06,0.02,0.05
			c-0.02-0.04-0.05-0.07-0.07-0.11c0.02,0.1,0.05,0.17,0.05,0.27c0,0.05-0.13,0.36-0.06,0.23c0.1-0.16-0.23,0.2,0.05-0.05
			c0.74-0.66,1.56-1.24,2.35-1.85C6.42,7.9,7.3,7.22,8.18,6.53c0.62-0.48,0.55-1.62,0-2.12C7.52,3.8,6.73,3.9,6.06,4.41L6.06,4.41z"
			/>
	</g>
</g>
<g>
	<g>
		<path class="st0" d="M3.03,11.74c5-0.08,10.01-0.16,15.01-0.25c1.93-0.03,1.93-3.03,0-3c-5,0.08-10.01,0.16-15.01,0.25
			C1.1,8.77,1.09,11.77,3.03,11.74L3.03,11.74z"/>
	</g>
</g>
</svg>
