<?xml version="1.0" encoding="UTF-8"?><svg id="Layer_1" xmlns="http://www.w3.org/2000/svg" viewBox="0 0 1001.24 1001.24"><defs><style>.cls-1{fill:#f60;}</style></defs><path class="cls-1" d="m73.55,295.08c1.38,1.35,3.18,2.07,5.2,2.07h19.5c2.12,0,4.01-.82,5.33-2.32,1.18-1.34,1.8-3.07,1.81-5.01v-46.46s4.93,8.21,4.93,8.21c1.35,2.7,3.94,4.24,7.17,4.24h9.13c3.09,0,5.7-1.54,7.09-4.09l4.87-8.27v46.42c.05,4.35,2.94,7.27,7.2,7.27h19.5c2.06,0,3.87-.74,5.25-2.15,1.33-1.37,2.03-3.15,2.04-5.17l-.08-102.76c0-1.97-.65-3.73-1.91-5.1-1.33-1.44-3.21-2.24-5.29-2.24h-19.35c-3.09,0-5.71,1.54-7.06,4.05l-16.94,28.09-16.67-27.9c-1.45-2.7-4.06-4.24-7.16-4.24h-19.35c-2.06,0-3.87.74-5.24,2.14-1.34,1.37-2.05,3.16-2.05,5.17l-.07,102.77c0,2.06.74,3.88,2.15,5.26h0Z"/><path class="cls-1" d="m185.36,297.14h21.2c3.74,0,6.55-2.2,7.37-5.76l2.85-10.19h28.82s2.86,10.15,2.86,10.15c.77,3.58,3.56,5.79,7.33,5.79h21.2c2.81,0,4.45-1.19,5.33-2.18.87-.98,1.83-2.71,1.51-5.38l-.12-1.02-31.81-103.37c-1.1-3.43-3.92-5.47-7.55-5.47h-26.47c-3.71,0-6.51,2.11-7.46,5.53l-31.63,102.93-.39,2.56.07.56c.44,3.55,3.14,5.84,6.9,5.84Zm45.82-67.91l6.39,23.08h-12.76s6.36-23.08,6.36-23.08Z"/><path class="cls-1" d="m291.74,295.08c1.38,1.35,3.18,2.07,5.2,2.07h19.5c2.12,0,4.02-.82,5.33-2.32,1.18-1.34,1.8-3.07,1.81-5l.02-26.86,3.83-5.35,20.22,35.54c1.6,2.58,4.1,4,7.02,4h22.13c2.45,0,4.02-1.06,4.91-1.95,1.41-1.41,2.05-3.29,1.8-5.31l-.71-2.27-32.4-55.57,30.34-41.72.17-.25c.7-1.12,1.61-2.83,1.36-4.83-.31-2.55-2.3-5.53-6.86-5.53h-22.29c-2.83,0-5.28,1.3-6.86,3.56l-22.66,31,.03-27.24c0-1.97-.66-3.73-1.91-5.08-1.33-1.44-3.21-2.24-5.29-2.24h-19.5c-2.06,0-3.87.74-5.24,2.14-1.34,1.37-2.05,3.16-2.05,5.17l-.07,102.77c0,2.06.74,3.88,2.15,5.26h0Z"/><path class="cls-1" d="m395.63,297.14h69.19c2.12,0,4.01-.82,5.34-2.33,1.17-1.34,1.79-3.06,1.8-4.99v-16.41c0-1.96-.66-3.72-1.92-5.1-1.33-1.44-3.21-2.23-5.28-2.23h-42.49s.03-12.91.03-12.91h25.52c4.17,0,7.1-2.87,7.29-7.32l.02-16.26c0-2.06-.75-3.88-2.15-5.25-1.38-1.36-3.18-2.07-5.21-2.07h-25.46s.04-11.51.04-11.51h42.4c2.06,0,3.88-.74,5.24-2.14,1.33-1.36,2.04-3.14,2.05-5.18v-16.39c0-1.97-.66-3.73-1.91-5.1-1.33-1.44-3.21-2.24-5.29-2.24h-69.19c-2.06,0-3.87.74-5.24,2.14-1.34,1.37-2.05,3.16-2.05,5.17l-.07,102.77c0,2.06.74,3.88,2.16,5.27,1.38,1.35,3.18,2.07,5.2,2.07Z"/><path class="cls-1" d="m528.65,289.6h0c7.91,5.83,18.1,8.78,30.28,8.78,8.46,0,16.05-1.49,22.57-4.42,6.71-3.02,12.04-7.38,15.82-12.97,3.82-5.63,5.77-12.24,5.8-19.7-.02-2.06-.09-3.45-.2-4.37-.83-6.73-3.35-12.38-7.52-16.8-3.89-4.13-8.04-7.21-12.34-9.15-3.88-1.75-9.19-3.76-15.69-5.94-5.73-2.03-10.02-3.64-12.75-4.78-2.93-1.23-4.46-2.3-5.24-3-.87-.77-1.05-1.45-1.11-1.97-.29-2.36.43-3.32,1.18-3.96,1.39-1.18,3.66-1.78,6.77-1.78,3.82,0,6.76.87,8.99,2.64,2.02,1.62,3.16,3.39,3.46,5.41l.04,2.44c-.1,2.05.94,3.92,2.82,5.08,1.23.76,2.7,1.15,4.39,1.15h19.19c2.12,0,4-.82,5.34-2.33,1.17-1.34,1.79-3.06,1.8-4.97v-1.36c-.05-2.23-.14-3.85-.27-4.93-.83-6.8-3.37-12.9-7.55-18.14-4.11-5.16-9.5-9.18-16-11.95-6.37-2.71-13.5-4.08-21.19-4.08-7.93,0-15.17,1.44-21.5,4.27-6.53,2.92-11.72,7.18-15.42,12.68-3.72,5.53-5.63,12.02-5.67,19.38.02,2.03.09,3.51.22,4.53.81,6.58,3.28,12.25,7.36,16.85,3.84,4.34,8.36,7.82,13.43,10.34,4.71,2.35,10.18,4.61,16.11,6.67.59.23,1.2.45,1.84.67.56.19,1.09.39,1.73.63,7.16,2.45,10.41,3.95,11.87,4.77,1.31.74,1.65,1.53,1.77,2.48.11.9.05,2.14-1.41,3.72-1.13,1.23-3.51,1.87-6.87,1.87-4.14,0-7.35-.94-9.81-2.89-2.83-2.24-3.16-4.08-3.16-5.07l.07-1.72c.16-2.11-.79-4.06-2.59-5.35-1.29-.92-2.85-1.38-4.63-1.38h-19.04c-2.06,0-3.87.74-5.23,2.13-1.35,1.37-2.06,3.17-2.05,5.05l-.06,2.25c.05,2.21.14,3.82.28,4.94,1.24,10.12,6.01,18.3,14.17,24.31Z"/><path class="cls-1" d="m623.76,288.53c7.97,6.54,18.08,9.85,30.04,9.85,8.65,0,16.4-1.76,23.04-5.24,6.76-3.54,12.08-8.64,15.82-15.15,3.7-6.44,5.58-13.92,5.58-22.22l.08-68.73c0-1.97-.66-3.73-1.91-5.08-1.33-1.44-3.21-2.24-5.29-2.24h-19.5c-2.06,0-3.87.74-5.24,2.14-1.34,1.37-2.05,3.16-2.05,5.17l-.08,68.81c.06,3.65-.86,6.43-2.82,8.49-1.93,2.04-4.33,2.99-7.54,2.99-2.99,0-5.36-.83-7.24-2.54-1.91-1.74-3.03-4.06-3.4-7.11-.15-1.17-.13-1.56-.13-1.56l.09-69.08c0-1.96-.66-3.72-1.92-5.09-1.33-1.44-3.21-2.23-5.28-2.23h-19.5c-2.07,0-3.88.74-5.23,2.13-1.35,1.37-2.06,3.17-2.06,5.18l-.07,68.91c.1,2.54.23,4.55.41,5.95,1.36,11.06,6.14,20.02,14.21,26.64Z"/><path class="cls-1" d="m712.79,297.14h19.5c2.13,0,4.02-.82,5.33-2.31,1.18-1.34,1.8-3.07,1.81-4.99l.12-35.88h3.58s16.61,38.25,16.61,38.25c1.3,3.14,3.99,4.94,7.38,4.94h20.59c2.58,0,4.18-1.06,5.06-1.94,1.42-1.41,2.06-3.36,1.79-5.45-.11-.92-.35-1.75-.73-2.46l-17.78-37.93c5.14-2.63,9.33-6.4,12.48-11.24,3.77-5.78,5.68-12.6,5.67-20.43-.08-2.44-.19-4.19-.33-5.36-1.21-9.87-5.24-17.86-11.98-23.76-6.72-5.88-15.28-8.86-25.45-8.86h-43.65c-2.06,0-3.87.74-5.24,2.14-1.34,1.37-2.05,3.16-2.05,5.17l-.07,102.77c0,2.06.74,3.88,2.16,5.27,1.38,1.35,3.18,2.06,5.2,2.06Zm26.72-71.91v-14.46s12.83,0,12.83,0c2.36,0,4.19.55,5.6,1.7,1.32,1.06,2.04,2.46,2.27,4.38.43,3.52-.68,5.16-1.55,6.09-1.47,1.56-3.45,2.29-6.23,2.29h-12.93Z"/><path class="cls-1" d="m808.05,297.14h69.19c2.12,0,4.01-.82,5.34-2.32,1.17-1.34,1.79-3.07,1.8-5v-16.4c0-1.97-.66-3.73-1.91-5.09-1.33-1.44-3.21-2.24-5.29-2.24h-42.49s.03-12.91.03-12.91h25.52c4.17,0,7.1-2.86,7.29-7.32l.02-16.26c0-2.06-.75-3.88-2.15-5.25-1.38-1.36-3.18-2.07-5.21-2.07h-25.46s.04-11.51.04-11.51h42.4c2.06,0,3.87-.74,5.24-2.14,1.33-1.36,2.04-3.14,2.06-5.18v-16.39c0-1.97-.66-3.73-1.91-5.1-1.33-1.44-3.21-2.24-5.29-2.24h-69.19c-2.06,0-3.87.74-5.24,2.14-1.34,1.37-2.05,3.16-2.05,5.17l-.07,102.77c0,2.06.74,3.88,2.16,5.27,1.38,1.35,3.18,2.06,5.2,2.06Z"/><path class="cls-1" d="m108.15,445.79c0,2.31.77,4.36,2.23,5.95,1.09,1.19,3.05,2.6,6.17,2.6h23.11c2.4,0,4.51-.86,6.12-2.5,1.56-1.6,2.38-3.68,2.39-6.05l-.02-41.8.11-.53,36.41-77.29.16-.38c.59-1.56.79-2.97.63-4.32-.49-4.02-3.64-6.62-8.01-6.62h-25.52c-4,0-7.22,2.23-8.56,5.78l-15.11,35.98-14.83-35.93c-1.52-3.7-4.67-5.83-8.66-5.83h-25.33c-3,0-4.86,1.23-5.91,2.27-1.63,1.63-2.37,3.89-2.07,6.36.13,1.09.41,2.02.85,2.84l35.82,77.47.02,42Z"/><path class="cls-1" d="m279.43,334.74c-4.76-6.82-11.1-12.15-18.83-15.86-7.62-3.65-16.36-5.5-25.98-5.5-10.45,0-19.85,2.24-27.93,6.65-8.17,4.46-14.63,10.79-19.2,18.82-4.54,7.98-6.83,17.22-6.78,27.44l-.08,36.88c-.04,1.98.14,4.59.55,7.96,1.7,13.85,7.46,25.05,17.12,33.29,9.6,8.19,21.84,12.34,36.36,12.34,10.56,0,20.05-2.23,28.18-6.64,8.24-4.46,14.74-10.83,19.31-18.94,4.53-8.05,6.79-17.44,6.71-27.91l-.1-36.81c.06-1.89-.12-4.51-.55-8-1.1-8.95-4.06-16.93-8.79-23.71Zm-30.71,31.17l-.11,38.31c.03,4.98-1.25,8.81-3.89,11.72h0c-2.52,2.77-5.83,4.12-10.13,4.12-3.73,0-6.69-1.06-9.05-3.24-2.42-2.23-3.85-5.36-4.37-9.55-.22-1.79-.24-2.61-.23-3.08l-.08-38.29c-.02-4.98,1.25-8.82,3.89-11.73,2.55-2.81,5.71-4.11,9.94-4.11,3.83,0,6.88,1.11,9.32,3.39,2.52,2.37,4,5.57,4.51,9.78.2,1.66.2,2.32.19,2.68Z"/><path class="cls-1" d="m297.45,405.69c.12,3.05.28,5.43.48,7.09,1.62,13.15,7.3,23.81,16.9,31.68h0c9.48,7.78,21.51,11.72,35.76,11.72,10.3,0,19.53-2.1,27.43-6.24,8.04-4.21,14.37-10.27,18.81-18.02,4.4-7.67,6.64-16.57,6.64-26.44l.09-82.1c0-2.3-.77-4.35-2.24-5.96-1.58-1.69-3.7-2.59-6.15-2.59h-23.3c-2.41,0-4.52.87-6.11,2.49-1.57,1.6-2.4,3.69-2.4,6.05l-.09,82.18c.07,4.42-1.05,7.79-3.42,10.29-2.32,2.45-5.32,3.64-9.16,3.64-3.62,0-6.5-1.01-8.78-3.09-2.32-2.11-3.67-4.92-4.13-8.61-.18-1.43-.16-1.9-.15-1.91l.1-82.5c0-2.3-.77-4.35-2.24-5.94-1.55-1.68-3.74-2.6-6.16-2.6h-23.3c-2.41,0-4.52.87-6.12,2.5-1.56,1.6-2.39,3.69-2.39,6.04l-.09,82.3Z"/><path class="cls-1" d="m483.83,317.45c-1.55-1.68-3.74-2.6-6.16-2.6h-23.3c-2.4,0-4.52.87-6.11,2.49-1.57,1.6-2.4,3.69-2.4,6.05l-.09,122.75c-.01,2.42.86,4.55,2.5,6.15,1.61,1.59,3.71,2.42,6.08,2.42h23.3c2.49,0,4.69-.96,6.22-2.71,1.37-1.57,2.1-3.59,2.1-5.82l.05-43.79h24.89s-.05,43.76-.05,43.76c-.01,2.42.86,4.55,2.5,6.15,1.61,1.59,3.71,2.42,6.08,2.42h23.3c2.49,0,4.7-.97,6.21-2.7,1.37-1.56,2.1-3.57,2.11-5.84l.09-122.78c0-2.3-.77-4.35-2.24-5.96-1.58-1.69-3.7-2.59-6.15-2.59h-23.3c-2.41,0-4.53.87-6.12,2.51-1.57,1.6-2.39,3.7-2.38,6.03l-.05,42.31h-24.89s.05-42.32.05-42.32c0-2.3-.78-4.35-2.24-5.93Z"/><path class="cls-1" d="m557.79,447.27l.08.65c.51,4.13,3.66,6.8,8.04,6.8h25.33c4.36,0,7.64-2.57,8.6-6.72l3.44-12.33h34.74s3.46,12.28,3.46,12.28c.89,4.18,4.15,6.76,8.55,6.76h25.33c3.28,0,5.18-1.38,6.21-2.54,1.01-1.14,2.13-3.15,1.75-6.27l-.15-1.2-38-123.47c-1.29-4-4.59-6.38-8.82-6.38h-31.62c-4.33,0-7.6,2.46-8.71,6.46l-37.78,122.96-.46,3Zm62.86-74.24l7.91,28.55h-15.78s7.87-28.55,7.87-28.55Z"/><path class="cls-1" d="m660.91,317.39c-1.01,1.14-2.13,3.15-1.75,6.27l.14,1.16,35.87,123.16c.91,4.16,4.16,6.73,8.55,6.73h25.15c4.46,0,7.81-2.55,8.78-6.68l36.07-122.8.1-.4c.28-1.34.36-2.42.24-3.36-.49-4.02-3.64-6.62-8.01-6.62h-24.78c-4.21,0-7.5,2.64-8.58,6.94l-15.68,64.18-15.95-64.08c-.88-4.35-4.16-7.04-8.6-7.04h-25.33c-3.28,0-5.18,1.38-6.21,2.54Z"/><path class="cls-1" d="m872.49,351.54c2.41,0,4.52-.87,6.12-2.5h0c1.55-1.61,2.37-3.69,2.38-6.04v-19.6c0-2.3-.77-4.35-2.24-5.94-1.55-1.68-3.74-2.6-6.16-2.6h-82.65c-2.4,0-4.52.87-6.11,2.49-1.57,1.6-2.4,3.69-2.4,6.05l-.09,122.76c0,2.41.86,4.54,2.5,6.13,1.61,1.59,3.71,2.42,6.08,2.42h82.65c2.48,0,4.69-.96,6.21-2.7,1.37-1.56,2.1-3.57,2.11-5.84v-19.6c0-2.29-.77-4.34-2.24-5.94-1.1-1.18-3.06-2.6-6.16-2.6h-50.96s.03-15.83.03-15.83h30.69c4.86,0,8.28-3.34,8.5-8.54l.02-19.42c0-2.4-.86-4.51-2.52-6.15-1.62-1.57-3.71-2.4-6.06-2.4h-30.62s.05-14.16.05-14.16h50.85Z"/><path class="cls-1" d="m314.47,479.49c-4.63-5-11.12-7.75-18.26-7.75H96.76c-6.98,0-13.39,2.63-18.09,7.44-4.62,4.74-7.07,10.9-7.08,17.81l-.21,296.89c-.02,7,2.62,13.45,7.44,18.17,4.78,4.68,10.97,7.15,17.91,7.15h56.35c7.33,0,13.89-2.88,18.48-8.1,4.06-4.63,6.22-10.55,6.24-17.15l.08-101.76h69.62c14.4,0,24.5-9.85,25.15-24.5l.06-47.69c0-6.98-2.64-13.42-7.46-18.14-4.78-4.67-10.96-7.14-17.9-7.14h-69.43s.08-25.06.08-25.06h117.95c6.99,0,13.41-2.64,18.08-7.43,4.62-4.73,7.07-10.89,7.08-17.83v-47.4c0-6.71-2.28-12.74-6.65-17.51Z"/><path class="cls-1" d="m572.44,471.74h-56.35c-6.98,0-13.4,2.64-18.07,7.43-4.63,4.74-7.08,10.9-7.09,17.82l-.22,198.55v.3c.16,9.42-2.14,16.5-7.01,21.65-4.77,5.03-10.75,7.37-18.81,7.37-7.67,0-13.44-1.99-18.16-6.27-4.77-4.33-7.55-10.2-8.5-17.98-.33-2.67-.34-3.74-.35-3.74,0,0,0,0,0,0l.05-.64.22-199.21c0-6.71-2.26-12.74-6.64-17.53-4.63-5-11.12-7.75-18.26-7.75h-56.34c-6.98,0-13.4,2.63-18.09,7.44-4.62,4.74-7.07,10.9-7.07,17.8l-.22,198.55v.69c.31,7.66.7,13.4,1.21,17.52,4.05,33.02,18.36,59.82,42.52,79.63,23.77,19.5,53.85,29.39,89.39,29.39,25.67,0,48.71-5.25,68.47-15.6,20.24-10.6,36.18-25.86,47.36-45.36,11.05-19.26,16.65-41.54,16.66-66.23l.21-198.55c0-6.71-2.26-12.74-6.64-17.53-4.63-5-11.12-7.75-18.26-7.75Z"/><path class="cls-1" d="m882.75,497.02c0-6.72-2.27-12.76-6.64-17.53-4.63-5-11.12-7.75-18.26-7.75h-55.45c-14.4,0-24.5,9.85-25.14,24.5l-.02.42.46,105.55-66.57-116.44-.33-.56c-5.34-8.57-14-13.48-23.77-13.48h-53.21c-6.98,0-13.4,2.64-18.09,7.44-4.63,4.75-7.07,10.91-7.07,17.81l-.21,296.91c-.02,6.99,2.63,13.43,7.44,18.14,4.78,4.68,10.97,7.15,17.91,7.15h55.45c7.33,0,13.9-2.88,18.47-8.09,4.07-4.63,6.23-10.55,6.25-17.23l-.38-107.03,66.9,118.25.37.62c5.33,8.57,13.99,13.49,23.76,13.49h53.22c14.4,0,24.5-9.85,25.15-24.51l.02-.38-.24-297.28Z"/><path class="cls-1" d="m908.4,471.74h-14.18c-.53,0-.85.24-1.03.44-.15.17-.34.48-.35.96v1.67c-.02.51.19.84.39,1.04.18.18.51.39,1,.39h4.56s-.02,17.77-.02,17.77c0,.4.13.76.4,1.04.18.18.51.4,1,.4h1.99c.79,0,1.36-.54,1.42-1.41v-17.79s4.83,0,4.83,0c.38,0,.72-.14.97-.4.18-.18.4-.5.41-1.01v-1.67c.02-.4-.12-.77-.39-1.03-.18-.18-.5-.4-1.01-.4Z"/><path class="cls-1" d="m929.84,473.17c0-.41-.13-.78-.39-1.03-.18-.19-.51-.41-1.02-.41h-2.02c-.61,0-1.11.31-1.33.76l-4.4,7.19-4.34-7.14c-.27-.51-.77-.81-1.37-.81h-2.03c-.49,0-.82.21-1,.39-.18.18-.4.49-.41,1.02v20.86c0,.4.14.77.4,1.03.18.19.51.4,1.01.4h1.99c.38,0,.71-.14.98-.4.25-.25.39-.59.4-1.01l-.02-12.81,2.51,4.27c.27.52.77.81,1.37.81h.97c.59,0,1.09-.29,1.36-.77l2.55-4.3v12.8c0,.52.23.84.4,1,.26.27.61.41.99.41h1.99c.5,0,.82-.22,1-.39.27-.26.42-.62.42-1.02v-20.86Z"/></svg>