<?xml version="1.0" encoding="utf-8"?>
<!-- Generator: Adobe Illustrator 28.1.0, SVG Export Plug-In . SVG Version: 6.00 Build 0)  -->
<svg version="1.1" id="Layer_1" xmlns="http://www.w3.org/2000/svg" xmlns:xlink="http://www.w3.org/1999/xlink" x="0px" y="0px"
	 viewBox="0 0 20 20" style="enable-background:new 0 0 20 20;" xml:space="preserve">
<style type="text/css">
	.st0{fill:#FF6600;}
</style>
<g>
	<g>
		<path class="st0" d="M2.07,12.01c5.24-0.97,10.59-1.15,15.89-0.61c0.81,0.08,1.5-0.75,1.5-1.5c0-0.88-0.69-1.42-1.5-1.5
			C12.38,7.83,6.78,8.1,1.27,9.12c-0.8,0.15-1.25,1.11-1.05,1.85C0.45,11.8,1.27,12.16,2.07,12.01L2.07,12.01z"/>
	</g>
</g>
<g>
	<g>
		<path class="st0" d="M19.13,8.84c-1.01-2.17-2.3-4.17-3.81-6.02c-0.5-0.61-1.61-0.56-2.12,0c-0.26,0.29-0.46,0.66-0.44,1.06
			c0.02,0.42,0.17,0.74,0.44,1.06c0.09,0.11,0.17,0.21,0.26,0.32c0.04,0.05,0.08,0.11,0.13,0.16c-0.06-0.06-0.16-0.21-0.05-0.06
			c0.16,0.22,0.33,0.44,0.48,0.66c0.33,0.46,0.64,0.93,0.94,1.4c0.59,0.95,1.12,1.93,1.58,2.94c0.33,0.71,1.42,0.95,2.05,0.54
			C19.33,10.42,19.49,9.6,19.13,8.84L19.13,8.84z"/>
	</g>
</g>
<g>
	<g>
		<path class="st0" d="M16.54,9.24c-0.16,0.24-0.32,0.47-0.49,0.7c-0.15,0.21,0.17-0.21,0.05-0.07c-0.05,0.05-0.09,0.11-0.13,0.17
			c-0.09,0.11-0.18,0.22-0.28,0.32c-0.37,0.42-0.78,0.81-1.21,1.18c-0.1,0.08-0.48,0.35-0.09,0.08c-0.11,0.08-0.22,0.17-0.34,0.25
			c-0.22,0.15-0.44,0.3-0.67,0.43c-0.24,0.14-0.48,0.28-0.73,0.4c-0.12,0.06-0.25,0.12-0.38,0.18c-0.22,0.1,0,0.01,0.09-0.04
			c-0.08,0.03-0.15,0.06-0.23,0.09c-0.38,0.15-0.69,0.33-0.9,0.69c-0.19,0.32-0.27,0.8-0.15,1.16c0.23,0.71,1.06,1.36,1.85,1.05
			c2.56-1.01,4.7-2.76,6.2-5.07c0.43-0.66,0.16-1.69-0.54-2.05C17.85,8.31,17,8.54,16.54,9.24L16.54,9.24z"/>
	</g>
</g>
</svg>
